<mxfile host="app.diagrams.net" agent="Mozilla/5.0 (Windows NT 10.0; Win64; x64) AppleWebKit/537.36 (KHTML, like Gecko) Chrome/137.0.0.0 Safari/537.36" version="27.1.6" pages="2">
  <diagram name="Page-1" id="cIxD7JRok6XFG0A6Qs29">
    <mxGraphModel dx="2276" dy="811" grid="1" gridSize="10" guides="1" tooltips="1" connect="1" arrows="1" fold="1" page="1" pageScale="1" pageWidth="850" pageHeight="1100" math="0" shadow="0">
      <root>
        <mxCell id="0" />
        <mxCell id="1" parent="0" />
        <mxCell id="ukNlSVkSnuvcewS_Kb5W-1" value="&lt;h1&gt;&lt;font style=&quot;font-size: 36px; color: rgb(255, 0, 0);&quot; face=&quot;Times New Roman&quot;&gt; Hospital Management System - ERD&lt;/font&gt;&lt;/h1&gt;" style="text;html=1;align=center;verticalAlign=middle;whiteSpace=wrap;rounded=0;" vertex="1" parent="1">
          <mxGeometry x="-10" y="150" width="640" height="80" as="geometry" />
        </mxCell>
        <mxCell id="ukNlSVkSnuvcewS_Kb5W-2" value="&lt;font style=&quot;font-size: 24px; color: rgb(0, 0, 204);&quot; face=&quot;Times New Roman&quot;&gt;Patients&lt;/font&gt;" style="whiteSpace=wrap;html=1;align=center;" vertex="1" parent="1">
          <mxGeometry x="-270" y="750" width="160" height="60" as="geometry" />
        </mxCell>
        <mxCell id="ukNlSVkSnuvcewS_Kb5W-3" value="&lt;font style=&quot;color: rgb(0, 0, 0);&quot; face=&quot;Times New Roman&quot;&gt;&lt;b style=&quot;&quot;&gt;PatientID&lt;/b&gt;&lt;/font&gt;" style="ellipse;whiteSpace=wrap;html=1;align=center;fontStyle=4;" vertex="1" parent="1">
          <mxGeometry x="-320" y="660" width="100" height="40" as="geometry" />
        </mxCell>
        <mxCell id="ukNlSVkSnuvcewS_Kb5W-4" value="&lt;font style=&quot;color: rgb(0, 0, 0);&quot; face=&quot;Times New Roman&quot;&gt;&lt;b style=&quot;&quot;&gt;PatientName&lt;/b&gt;&lt;/font&gt;" style="ellipse;whiteSpace=wrap;html=1;align=center;" vertex="1" parent="1">
          <mxGeometry x="-210" y="680" width="100" height="40" as="geometry" />
        </mxCell>
        <mxCell id="ukNlSVkSnuvcewS_Kb5W-5" value="&lt;font face=&quot;Times New Roman&quot;&gt;&lt;b&gt;Gender&lt;/b&gt;&lt;/font&gt;" style="ellipse;whiteSpace=wrap;html=1;align=center;" vertex="1" parent="1">
          <mxGeometry x="-420" y="760" width="100" height="40" as="geometry" />
        </mxCell>
        <mxCell id="ukNlSVkSnuvcewS_Kb5W-6" value="&lt;font face=&quot;Times New Roman&quot;&gt;&lt;b&gt;DOB&lt;/b&gt;&lt;/font&gt;" style="ellipse;whiteSpace=wrap;html=1;align=center;" vertex="1" parent="1">
          <mxGeometry x="-380" y="700" width="100" height="40" as="geometry" />
        </mxCell>
        <mxCell id="ukNlSVkSnuvcewS_Kb5W-8" value="&lt;b&gt;Age&lt;/b&gt;" style="ellipse;whiteSpace=wrap;html=1;align=center;dashed=1;" vertex="1" parent="1">
          <mxGeometry x="-110" y="830" width="100" height="40" as="geometry" />
        </mxCell>
        <mxCell id="ukNlSVkSnuvcewS_Kb5W-9" value="" style="endArrow=none;html=1;rounded=0;exitX=0.5;exitY=0;exitDx=0;exitDy=0;entryX=1;entryY=1;entryDx=0;entryDy=0;" edge="1" parent="1" source="ukNlSVkSnuvcewS_Kb5W-8" target="ukNlSVkSnuvcewS_Kb5W-2">
          <mxGeometry relative="1" as="geometry">
            <mxPoint x="120" y="790" as="sourcePoint" />
            <mxPoint x="280" y="790" as="targetPoint" />
          </mxGeometry>
        </mxCell>
        <mxCell id="ukNlSVkSnuvcewS_Kb5W-10" value="" style="endArrow=none;html=1;rounded=0;exitX=0;exitY=1;exitDx=0;exitDy=0;entryX=0.5;entryY=0;entryDx=0;entryDy=0;" edge="1" parent="1" source="ukNlSVkSnuvcewS_Kb5W-4" target="ukNlSVkSnuvcewS_Kb5W-2">
          <mxGeometry relative="1" as="geometry">
            <mxPoint x="120" y="790" as="sourcePoint" />
            <mxPoint x="280" y="790" as="targetPoint" />
          </mxGeometry>
        </mxCell>
        <mxCell id="ukNlSVkSnuvcewS_Kb5W-11" value="" style="endArrow=none;html=1;rounded=0;exitX=0.5;exitY=1;exitDx=0;exitDy=0;entryX=0.25;entryY=0;entryDx=0;entryDy=0;" edge="1" parent="1" source="ukNlSVkSnuvcewS_Kb5W-3" target="ukNlSVkSnuvcewS_Kb5W-2">
          <mxGeometry relative="1" as="geometry">
            <mxPoint x="120" y="790" as="sourcePoint" />
            <mxPoint x="280" y="790" as="targetPoint" />
          </mxGeometry>
        </mxCell>
        <mxCell id="ukNlSVkSnuvcewS_Kb5W-12" value="" style="endArrow=none;html=1;rounded=0;exitX=1;exitY=1;exitDx=0;exitDy=0;entryX=0;entryY=0;entryDx=0;entryDy=0;" edge="1" parent="1" source="ukNlSVkSnuvcewS_Kb5W-6" target="ukNlSVkSnuvcewS_Kb5W-2">
          <mxGeometry relative="1" as="geometry">
            <mxPoint x="120" y="790" as="sourcePoint" />
            <mxPoint x="280" y="790" as="targetPoint" />
          </mxGeometry>
        </mxCell>
        <mxCell id="ukNlSVkSnuvcewS_Kb5W-13" value="" style="endArrow=none;html=1;rounded=0;exitX=1;exitY=0.5;exitDx=0;exitDy=0;entryX=0;entryY=0.5;entryDx=0;entryDy=0;" edge="1" parent="1" source="ukNlSVkSnuvcewS_Kb5W-5" target="ukNlSVkSnuvcewS_Kb5W-2">
          <mxGeometry relative="1" as="geometry">
            <mxPoint x="120" y="790" as="sourcePoint" />
            <mxPoint x="280" y="790" as="targetPoint" />
          </mxGeometry>
        </mxCell>
        <mxCell id="ukNlSVkSnuvcewS_Kb5W-14" value="" style="endArrow=none;html=1;rounded=0;exitX=1;exitY=0;exitDx=0;exitDy=0;entryX=0;entryY=1;entryDx=0;entryDy=0;" edge="1" parent="1" source="ukNlSVkSnuvcewS_Kb5W-36" target="ukNlSVkSnuvcewS_Kb5W-2">
          <mxGeometry relative="1" as="geometry">
            <mxPoint x="-300" y="830" as="sourcePoint" />
            <mxPoint x="280" y="790" as="targetPoint" />
          </mxGeometry>
        </mxCell>
        <mxCell id="ukNlSVkSnuvcewS_Kb5W-15" value="&lt;font style=&quot;font-size: 24px; color: rgb(0, 0, 204);&quot; face=&quot;Times New Roman&quot;&gt;Doctors&lt;/font&gt;" style="whiteSpace=wrap;html=1;align=center;" vertex="1" parent="1">
          <mxGeometry x="910" y="400" width="160" height="60" as="geometry" />
        </mxCell>
        <mxCell id="ukNlSVkSnuvcewS_Kb5W-16" value="&lt;font style=&quot;color: rgb(0, 0, 0);&quot; face=&quot;Times New Roman&quot;&gt;&lt;b style=&quot;&quot;&gt;DoctorID&lt;/b&gt;&lt;/font&gt;" style="ellipse;whiteSpace=wrap;html=1;align=center;fontStyle=4;" vertex="1" parent="1">
          <mxGeometry x="1150" y="350" width="100" height="40" as="geometry" />
        </mxCell>
        <mxCell id="ukNlSVkSnuvcewS_Kb5W-18" value="&lt;font face=&quot;Times New Roman&quot;&gt;&lt;b&gt;Specialization&lt;/b&gt;&lt;/font&gt;" style="ellipse;whiteSpace=wrap;html=1;align=center;" vertex="1" parent="1">
          <mxGeometry x="1200" y="450" width="100" height="40" as="geometry" />
        </mxCell>
        <mxCell id="ukNlSVkSnuvcewS_Kb5W-19" value="" style="endArrow=none;html=1;rounded=0;entryX=0;entryY=1;entryDx=0;entryDy=0;exitX=1;exitY=0.25;exitDx=0;exitDy=0;" edge="1" parent="1" source="ukNlSVkSnuvcewS_Kb5W-15" target="ukNlSVkSnuvcewS_Kb5W-16">
          <mxGeometry relative="1" as="geometry">
            <mxPoint x="730" y="430" as="sourcePoint" />
            <mxPoint x="890" y="430" as="targetPoint" />
          </mxGeometry>
        </mxCell>
        <mxCell id="ukNlSVkSnuvcewS_Kb5W-20" value="" style="endArrow=none;html=1;rounded=0;entryX=0;entryY=0.5;entryDx=0;entryDy=0;exitX=1;exitY=0.5;exitDx=0;exitDy=0;" edge="1" parent="1" source="ukNlSVkSnuvcewS_Kb5W-15" target="ukNlSVkSnuvcewS_Kb5W-37">
          <mxGeometry relative="1" as="geometry">
            <mxPoint x="730" y="430" as="sourcePoint" />
            <mxPoint x="1120" y="420" as="targetPoint" />
          </mxGeometry>
        </mxCell>
        <mxCell id="ukNlSVkSnuvcewS_Kb5W-21" value="" style="endArrow=none;html=1;rounded=0;entryX=0;entryY=0;entryDx=0;entryDy=0;exitX=1;exitY=0.75;exitDx=0;exitDy=0;" edge="1" parent="1" source="ukNlSVkSnuvcewS_Kb5W-15" target="ukNlSVkSnuvcewS_Kb5W-18">
          <mxGeometry relative="1" as="geometry">
            <mxPoint x="730" y="430" as="sourcePoint" />
            <mxPoint x="890" y="430" as="targetPoint" />
          </mxGeometry>
        </mxCell>
        <mxCell id="ukNlSVkSnuvcewS_Kb5W-22" value="&lt;font style=&quot;font-size: 24px; color: rgb(0, 0, 204);&quot; face=&quot;Times New Roman&quot;&gt;Departments&lt;/font&gt;" style="whiteSpace=wrap;html=1;align=center;" vertex="1" parent="1">
          <mxGeometry x="1090" y="740" width="160" height="60" as="geometry" />
        </mxCell>
        <mxCell id="ukNlSVkSnuvcewS_Kb5W-23" value="&lt;font style=&quot;color: rgb(0, 0, 0);&quot; face=&quot;Times New Roman&quot;&gt;&lt;b&gt;DepartmentID&lt;/b&gt;&lt;/font&gt;" style="ellipse;whiteSpace=wrap;html=1;align=center;fontStyle=4;" vertex="1" parent="1">
          <mxGeometry x="1210" y="680" width="100" height="40" as="geometry" />
        </mxCell>
        <mxCell id="ukNlSVkSnuvcewS_Kb5W-24" value="&lt;font face=&quot;Times New Roman&quot;&gt;&lt;b&gt;Email&lt;/b&gt;&lt;/font&gt;" style="ellipse;whiteSpace=wrap;html=1;align=center;" vertex="1" parent="1">
          <mxGeometry x="-400" y="900" width="100" height="40" as="geometry" />
        </mxCell>
        <mxCell id="ukNlSVkSnuvcewS_Kb5W-25" value="&lt;font face=&quot;Times New Roman&quot;&gt;&lt;b&gt;Address&lt;/b&gt;&lt;/font&gt;" style="ellipse;whiteSpace=wrap;html=1;align=center;" vertex="1" parent="1">
          <mxGeometry x="-510" y="860" width="100" height="40" as="geometry" />
        </mxCell>
        <mxCell id="ukNlSVkSnuvcewS_Kb5W-26" value="&lt;font face=&quot;Times New Roman&quot;&gt;&lt;b&gt;PhoneNo&lt;/b&gt;&lt;/font&gt;" style="ellipse;whiteSpace=wrap;html=1;align=center;" vertex="1" parent="1">
          <mxGeometry x="-520" y="790" width="100" height="40" as="geometry" />
        </mxCell>
        <mxCell id="ukNlSVkSnuvcewS_Kb5W-27" value="" style="endArrow=none;html=1;rounded=0;exitX=1;exitY=0.5;exitDx=0;exitDy=0;entryX=0;entryY=0;entryDx=0;entryDy=0;" edge="1" parent="1" source="ukNlSVkSnuvcewS_Kb5W-26" target="ukNlSVkSnuvcewS_Kb5W-36">
          <mxGeometry relative="1" as="geometry">
            <mxPoint x="50" y="790" as="sourcePoint" />
            <mxPoint x="-400" y="830" as="targetPoint" />
          </mxGeometry>
        </mxCell>
        <mxCell id="ukNlSVkSnuvcewS_Kb5W-28" value="" style="endArrow=none;html=1;rounded=0;exitX=1;exitY=0;exitDx=0;exitDy=0;entryX=0;entryY=1;entryDx=0;entryDy=0;" edge="1" parent="1" source="ukNlSVkSnuvcewS_Kb5W-25" target="ukNlSVkSnuvcewS_Kb5W-36">
          <mxGeometry relative="1" as="geometry">
            <mxPoint x="50" y="790" as="sourcePoint" />
            <mxPoint x="-385.35533905932743" y="844.1421356237311" as="targetPoint" />
          </mxGeometry>
        </mxCell>
        <mxCell id="ukNlSVkSnuvcewS_Kb5W-29" value="" style="endArrow=none;html=1;rounded=0;exitX=0.5;exitY=0;exitDx=0;exitDy=0;entryX=0.5;entryY=1;entryDx=0;entryDy=0;" edge="1" parent="1" source="ukNlSVkSnuvcewS_Kb5W-24" target="ukNlSVkSnuvcewS_Kb5W-36">
          <mxGeometry relative="1" as="geometry">
            <mxPoint x="50" y="790" as="sourcePoint" />
            <mxPoint x="-350" y="850" as="targetPoint" />
          </mxGeometry>
        </mxCell>
        <mxCell id="ukNlSVkSnuvcewS_Kb5W-30" value="&lt;font face=&quot;Times New Roman&quot;&gt;&lt;b&gt;PhoneNo&lt;/b&gt;&lt;/font&gt;" style="ellipse;whiteSpace=wrap;html=1;align=center;" vertex="1" parent="1">
          <mxGeometry x="1310" y="330" width="100" height="40" as="geometry" />
        </mxCell>
        <mxCell id="ukNlSVkSnuvcewS_Kb5W-31" value="&lt;font face=&quot;Times New Roman&quot;&gt;&lt;b&gt;Address&lt;/b&gt;&lt;/font&gt;" style="ellipse;whiteSpace=wrap;html=1;align=center;" vertex="1" parent="1">
          <mxGeometry x="1360" y="390" width="100" height="40" as="geometry" />
        </mxCell>
        <mxCell id="ukNlSVkSnuvcewS_Kb5W-32" value="&lt;font face=&quot;Times New Roman&quot;&gt;&lt;b&gt;Email&lt;/b&gt;&lt;/font&gt;" style="ellipse;whiteSpace=wrap;html=1;align=center;" vertex="1" parent="1">
          <mxGeometry x="1330" y="450" width="100" height="40" as="geometry" />
        </mxCell>
        <mxCell id="ukNlSVkSnuvcewS_Kb5W-33" value="" style="endArrow=none;html=1;rounded=0;entryX=0.08;entryY=0.2;entryDx=0;entryDy=0;exitX=1;exitY=1;exitDx=0;exitDy=0;entryPerimeter=0;" edge="1" parent="1" source="ukNlSVkSnuvcewS_Kb5W-37" target="ukNlSVkSnuvcewS_Kb5W-32">
          <mxGeometry relative="1" as="geometry">
            <mxPoint x="1205.3553390593274" y="434.14213562373106" as="sourcePoint" />
            <mxPoint x="820" y="430" as="targetPoint" />
          </mxGeometry>
        </mxCell>
        <mxCell id="ukNlSVkSnuvcewS_Kb5W-34" value="" style="endArrow=none;html=1;rounded=0;exitX=1;exitY=0.5;exitDx=0;exitDy=0;entryX=0;entryY=0.5;entryDx=0;entryDy=0;" edge="1" parent="1" source="ukNlSVkSnuvcewS_Kb5W-37" target="ukNlSVkSnuvcewS_Kb5W-31">
          <mxGeometry relative="1" as="geometry">
            <mxPoint x="1220" y="420" as="sourcePoint" />
            <mxPoint x="820" y="430" as="targetPoint" />
          </mxGeometry>
        </mxCell>
        <mxCell id="ukNlSVkSnuvcewS_Kb5W-35" value="" style="endArrow=none;html=1;rounded=0;entryX=0;entryY=1;entryDx=0;entryDy=0;exitX=1;exitY=0;exitDx=0;exitDy=0;" edge="1" parent="1" source="ukNlSVkSnuvcewS_Kb5W-37" target="ukNlSVkSnuvcewS_Kb5W-30">
          <mxGeometry relative="1" as="geometry">
            <mxPoint x="1170" y="400" as="sourcePoint" />
            <mxPoint x="820" y="430" as="targetPoint" />
          </mxGeometry>
        </mxCell>
        <mxCell id="ukNlSVkSnuvcewS_Kb5W-36" value="&lt;b&gt;&lt;font face=&quot;Times New Roman&quot;&gt;ContactInfo&lt;/font&gt;&lt;/b&gt;" style="ellipse;whiteSpace=wrap;html=1;align=center;" vertex="1" parent="1">
          <mxGeometry x="-400" y="820" width="100" height="40" as="geometry" />
        </mxCell>
        <mxCell id="ukNlSVkSnuvcewS_Kb5W-37" value="&lt;b&gt;&lt;font face=&quot;Times New Roman&quot;&gt;ContactInfo&lt;/font&gt;&lt;/b&gt;" style="ellipse;whiteSpace=wrap;html=1;align=center;" vertex="1" parent="1">
          <mxGeometry x="1230" y="400" width="100" height="40" as="geometry" />
        </mxCell>
        <mxCell id="ukNlSVkSnuvcewS_Kb5W-39" value="&lt;font face=&quot;Times New Roman&quot;&gt;&lt;b&gt;DepartmentName&lt;/b&gt;&lt;/font&gt;" style="ellipse;whiteSpace=wrap;html=1;align=center;" vertex="1" parent="1">
          <mxGeometry x="1290" y="720" width="100" height="40" as="geometry" />
        </mxCell>
        <mxCell id="ukNlSVkSnuvcewS_Kb5W-45" value="" style="endArrow=none;html=1;rounded=0;entryX=0;entryY=0.5;entryDx=0;entryDy=0;exitX=1;exitY=0.25;exitDx=0;exitDy=0;" edge="1" parent="1" source="ukNlSVkSnuvcewS_Kb5W-22" target="ukNlSVkSnuvcewS_Kb5W-39">
          <mxGeometry relative="1" as="geometry">
            <mxPoint x="810" y="540" as="sourcePoint" />
            <mxPoint x="970" y="540" as="targetPoint" />
          </mxGeometry>
        </mxCell>
        <mxCell id="ukNlSVkSnuvcewS_Kb5W-46" value="" style="endArrow=none;html=1;rounded=0;exitX=0.75;exitY=0;exitDx=0;exitDy=0;entryX=0;entryY=1;entryDx=0;entryDy=0;" edge="1" parent="1" source="ukNlSVkSnuvcewS_Kb5W-22" target="ukNlSVkSnuvcewS_Kb5W-23">
          <mxGeometry relative="1" as="geometry">
            <mxPoint x="810" y="540" as="sourcePoint" />
            <mxPoint x="970" y="540" as="targetPoint" />
          </mxGeometry>
        </mxCell>
        <mxCell id="ukNlSVkSnuvcewS_Kb5W-47" value="&lt;font style=&quot;font-size: 24px; color: rgb(0, 0, 204);&quot; face=&quot;Times New Roman&quot;&gt;Appointments&lt;/font&gt;" style="whiteSpace=wrap;html=1;align=center;" vertex="1" parent="1">
          <mxGeometry x="320" y="730" width="160" height="60" as="geometry" />
        </mxCell>
        <mxCell id="ukNlSVkSnuvcewS_Kb5W-48" value="&lt;font face=&quot;Times New Roman&quot;&gt;&lt;b&gt;AppointmentID&lt;/b&gt;&lt;/font&gt;" style="ellipse;whiteSpace=wrap;html=1;align=center;fontStyle=4;" vertex="1" parent="1">
          <mxGeometry x="398.5" y="640" width="100" height="40" as="geometry" />
        </mxCell>
        <mxCell id="ukNlSVkSnuvcewS_Kb5W-49" value="&lt;b style=&quot;font-family: &amp;quot;Times New Roman&amp;quot;;&quot;&gt;AppointmentDate&lt;/b&gt;" style="ellipse;whiteSpace=wrap;html=1;align=center;" vertex="1" parent="1">
          <mxGeometry x="301" y="830" width="100" height="40" as="geometry" />
        </mxCell>
        <mxCell id="ukNlSVkSnuvcewS_Kb5W-50" value="&lt;b style=&quot;font-family: &amp;quot;Times New Roman&amp;quot;;&quot;&gt;AppointmentTime&lt;/b&gt;" style="ellipse;whiteSpace=wrap;html=1;align=center;" vertex="1" parent="1">
          <mxGeometry x="275" y="640" width="100" height="40" as="geometry" />
        </mxCell>
        <mxCell id="ukNlSVkSnuvcewS_Kb5W-56" value="" style="endArrow=none;html=1;rounded=0;exitX=0.5;exitY=0;exitDx=0;exitDy=0;entryX=0.25;entryY=1;entryDx=0;entryDy=0;" edge="1" parent="1" source="ukNlSVkSnuvcewS_Kb5W-49" target="ukNlSVkSnuvcewS_Kb5W-47">
          <mxGeometry relative="1" as="geometry">
            <mxPoint x="640" y="490" as="sourcePoint" />
            <mxPoint x="800" y="490" as="targetPoint" />
          </mxGeometry>
        </mxCell>
        <mxCell id="ukNlSVkSnuvcewS_Kb5W-57" value="" style="endArrow=none;html=1;rounded=0;exitX=1;exitY=1;exitDx=0;exitDy=0;entryX=0.25;entryY=0;entryDx=0;entryDy=0;" edge="1" parent="1" source="ukNlSVkSnuvcewS_Kb5W-50" target="ukNlSVkSnuvcewS_Kb5W-47">
          <mxGeometry relative="1" as="geometry">
            <mxPoint x="640" y="490" as="sourcePoint" />
            <mxPoint x="800" y="490" as="targetPoint" />
          </mxGeometry>
        </mxCell>
        <mxCell id="ukNlSVkSnuvcewS_Kb5W-58" value="" style="endArrow=none;html=1;rounded=0;exitX=0.5;exitY=1;exitDx=0;exitDy=0;entryX=0.75;entryY=0;entryDx=0;entryDy=0;" edge="1" parent="1" source="ukNlSVkSnuvcewS_Kb5W-48" target="ukNlSVkSnuvcewS_Kb5W-47">
          <mxGeometry relative="1" as="geometry">
            <mxPoint x="640" y="490" as="sourcePoint" />
            <mxPoint x="800" y="490" as="targetPoint" />
          </mxGeometry>
        </mxCell>
        <mxCell id="ukNlSVkSnuvcewS_Kb5W-60" value="&lt;font style=&quot;font-size: 24px; color: rgb(0, 0, 204);&quot; face=&quot;Times New Roman&quot;&gt;Rooms&lt;/font&gt;" style="whiteSpace=wrap;html=1;align=center;" vertex="1" parent="1">
          <mxGeometry x="-280" y="1495" width="160" height="60" as="geometry" />
        </mxCell>
        <mxCell id="ukNlSVkSnuvcewS_Kb5W-62" value="&lt;font face=&quot;Times New Roman&quot;&gt;&lt;b&gt;RoomNumber&lt;/b&gt;&lt;/font&gt;" style="ellipse;whiteSpace=wrap;html=1;align=center;fontStyle=4;" vertex="1" parent="1">
          <mxGeometry x="-105" y="1445" width="100" height="40" as="geometry" />
        </mxCell>
        <mxCell id="ukNlSVkSnuvcewS_Kb5W-63" value="&lt;font face=&quot;Times New Roman&quot;&gt;&lt;b&gt;Availability&lt;/b&gt;&lt;/font&gt;" style="ellipse;whiteSpace=wrap;html=1;align=center;" vertex="1" parent="1">
          <mxGeometry x="-85" y="1565" width="100" height="40" as="geometry" />
        </mxCell>
        <mxCell id="ukNlSVkSnuvcewS_Kb5W-64" value="&lt;font face=&quot;Times New Roman&quot;&gt;&lt;b&gt;Type&lt;/b&gt;&lt;/font&gt;" style="ellipse;whiteSpace=wrap;html=1;align=center;" vertex="1" parent="1">
          <mxGeometry x="-55" y="1505" width="100" height="40" as="geometry" />
        </mxCell>
        <mxCell id="ukNlSVkSnuvcewS_Kb5W-66" value="" style="endArrow=none;html=1;rounded=0;entryX=0;entryY=0;entryDx=0;entryDy=0;exitX=1;exitY=1;exitDx=0;exitDy=0;" edge="1" parent="1" source="ukNlSVkSnuvcewS_Kb5W-60" target="ukNlSVkSnuvcewS_Kb5W-63">
          <mxGeometry relative="1" as="geometry">
            <mxPoint x="-555" y="1415" as="sourcePoint" />
            <mxPoint x="-395" y="1415" as="targetPoint" />
          </mxGeometry>
        </mxCell>
        <mxCell id="ukNlSVkSnuvcewS_Kb5W-67" value="" style="endArrow=none;html=1;rounded=0;entryX=0;entryY=0.5;entryDx=0;entryDy=0;exitX=1;exitY=0.5;exitDx=0;exitDy=0;" edge="1" parent="1" source="ukNlSVkSnuvcewS_Kb5W-60" target="ukNlSVkSnuvcewS_Kb5W-64">
          <mxGeometry relative="1" as="geometry">
            <mxPoint x="-555" y="1415" as="sourcePoint" />
            <mxPoint x="-395" y="1415" as="targetPoint" />
          </mxGeometry>
        </mxCell>
        <mxCell id="ukNlSVkSnuvcewS_Kb5W-68" value="" style="endArrow=none;html=1;rounded=0;entryX=0;entryY=1;entryDx=0;entryDy=0;exitX=1;exitY=0;exitDx=0;exitDy=0;" edge="1" parent="1" source="ukNlSVkSnuvcewS_Kb5W-60" target="ukNlSVkSnuvcewS_Kb5W-62">
          <mxGeometry relative="1" as="geometry">
            <mxPoint x="-555" y="1415" as="sourcePoint" />
            <mxPoint x="-395" y="1415" as="targetPoint" />
          </mxGeometry>
        </mxCell>
        <mxCell id="ukNlSVkSnuvcewS_Kb5W-74" value="&lt;font face=&quot;Times New Roman&quot;&gt;&lt;b&gt;DateIn&lt;/b&gt;&lt;/font&gt;" style="ellipse;whiteSpace=wrap;html=1;align=center;" vertex="1" parent="1">
          <mxGeometry x="-70" y="1220" width="100" height="40" as="geometry" />
        </mxCell>
        <mxCell id="ukNlSVkSnuvcewS_Kb5W-75" value="&lt;font face=&quot;Times New Roman&quot;&gt;&lt;b&gt;DateOut&lt;/b&gt;&lt;/font&gt;" style="ellipse;whiteSpace=wrap;html=1;align=center;" vertex="1" parent="1">
          <mxGeometry x="-390" y="1240" width="100" height="40" as="geometry" />
        </mxCell>
        <mxCell id="ukNlSVkSnuvcewS_Kb5W-76" value="" style="endArrow=none;html=1;rounded=0;exitX=0.5;exitY=0;exitDx=0;exitDy=0;entryX=1;entryY=0.5;entryDx=0;entryDy=0;" edge="1" parent="1" source="ukNlSVkSnuvcewS_Kb5W-74" target="ukNlSVkSnuvcewS_Kb5W-190">
          <mxGeometry relative="1" as="geometry">
            <mxPoint x="5" y="1300" as="sourcePoint" />
            <mxPoint x="165" y="1300" as="targetPoint" />
          </mxGeometry>
        </mxCell>
        <mxCell id="ukNlSVkSnuvcewS_Kb5W-77" value="" style="endArrow=none;html=1;rounded=0;exitX=0.5;exitY=0;exitDx=0;exitDy=0;entryX=0;entryY=1;entryDx=0;entryDy=0;" edge="1" parent="1" source="ukNlSVkSnuvcewS_Kb5W-75" target="ukNlSVkSnuvcewS_Kb5W-190">
          <mxGeometry relative="1" as="geometry">
            <mxPoint x="5" y="1300" as="sourcePoint" />
            <mxPoint x="165" y="1300" as="targetPoint" />
          </mxGeometry>
        </mxCell>
        <mxCell id="ukNlSVkSnuvcewS_Kb5W-82" value="&lt;font style=&quot;font-size: 24px; color: rgb(0, 0, 204);&quot; face=&quot;Times New Roman&quot;&gt;MedicalRecords&lt;/font&gt;" style="whiteSpace=wrap;html=1;align=center;" vertex="1" parent="1">
          <mxGeometry x="720" y="890" width="160" height="60" as="geometry" />
        </mxCell>
        <mxCell id="ukNlSVkSnuvcewS_Kb5W-83" value="&lt;font face=&quot;Times New Roman&quot;&gt;&lt;b&gt;MedicalRecordsID&lt;/b&gt;&lt;/font&gt;" style="ellipse;whiteSpace=wrap;html=1;align=center;fontStyle=4;" vertex="1" parent="1">
          <mxGeometry x="890" y="840" width="110" height="40" as="geometry" />
        </mxCell>
        <mxCell id="ukNlSVkSnuvcewS_Kb5W-85" value="&lt;font face=&quot;Times New Roman&quot;&gt;&lt;b&gt;Diagnosis&lt;/b&gt;&lt;/font&gt;" style="ellipse;whiteSpace=wrap;html=1;align=center;" vertex="1" parent="1">
          <mxGeometry x="940" y="890" width="100" height="40" as="geometry" />
        </mxCell>
        <mxCell id="ukNlSVkSnuvcewS_Kb5W-87" value="&lt;font face=&quot;Times New Roman&quot;&gt;&lt;b&gt;TreatmentPlans&lt;/b&gt;&lt;/font&gt;" style="ellipse;whiteSpace=wrap;html=1;align=center;" vertex="1" parent="1">
          <mxGeometry x="950" y="950" width="100" height="40" as="geometry" />
        </mxCell>
        <mxCell id="ukNlSVkSnuvcewS_Kb5W-88" value="&lt;font face=&quot;Times New Roman&quot;&gt;&lt;b&gt;Date&lt;/b&gt;&lt;/font&gt;" style="ellipse;whiteSpace=wrap;html=1;align=center;" vertex="1" parent="1">
          <mxGeometry x="860" y="990" width="100" height="40" as="geometry" />
        </mxCell>
        <mxCell id="ukNlSVkSnuvcewS_Kb5W-89" value="&lt;font face=&quot;Times New Roman&quot;&gt;&lt;b&gt;Notes&lt;/b&gt;&lt;/font&gt;" style="ellipse;whiteSpace=wrap;html=1;align=center;" vertex="1" parent="1">
          <mxGeometry x="750" y="980" width="100" height="40" as="geometry" />
        </mxCell>
        <mxCell id="ukNlSVkSnuvcewS_Kb5W-93" value="" style="endArrow=none;html=1;rounded=0;entryX=0;entryY=1;entryDx=0;entryDy=0;exitX=1;exitY=0;exitDx=0;exitDy=0;" edge="1" parent="1" source="ukNlSVkSnuvcewS_Kb5W-82" target="ukNlSVkSnuvcewS_Kb5W-83">
          <mxGeometry relative="1" as="geometry">
            <mxPoint x="520" y="810" as="sourcePoint" />
            <mxPoint x="680" y="810" as="targetPoint" />
          </mxGeometry>
        </mxCell>
        <mxCell id="ukNlSVkSnuvcewS_Kb5W-94" value="" style="endArrow=none;html=1;rounded=0;entryX=0;entryY=0.5;entryDx=0;entryDy=0;exitX=1;exitY=0.5;exitDx=0;exitDy=0;" edge="1" parent="1" source="ukNlSVkSnuvcewS_Kb5W-82" target="ukNlSVkSnuvcewS_Kb5W-85">
          <mxGeometry relative="1" as="geometry">
            <mxPoint x="520" y="810" as="sourcePoint" />
            <mxPoint x="680" y="810" as="targetPoint" />
          </mxGeometry>
        </mxCell>
        <mxCell id="ukNlSVkSnuvcewS_Kb5W-95" value="" style="endArrow=none;html=1;rounded=0;exitX=0;exitY=0.5;exitDx=0;exitDy=0;entryX=1;entryY=1;entryDx=0;entryDy=0;" edge="1" parent="1" source="ukNlSVkSnuvcewS_Kb5W-87" target="ukNlSVkSnuvcewS_Kb5W-82">
          <mxGeometry relative="1" as="geometry">
            <mxPoint x="520" y="810" as="sourcePoint" />
            <mxPoint x="680" y="810" as="targetPoint" />
          </mxGeometry>
        </mxCell>
        <mxCell id="ukNlSVkSnuvcewS_Kb5W-96" value="" style="endArrow=none;html=1;rounded=0;entryX=0;entryY=0;entryDx=0;entryDy=0;exitX=0.75;exitY=1;exitDx=0;exitDy=0;" edge="1" parent="1" source="ukNlSVkSnuvcewS_Kb5W-82" target="ukNlSVkSnuvcewS_Kb5W-88">
          <mxGeometry relative="1" as="geometry">
            <mxPoint x="520" y="810" as="sourcePoint" />
            <mxPoint x="680" y="810" as="targetPoint" />
          </mxGeometry>
        </mxCell>
        <mxCell id="ukNlSVkSnuvcewS_Kb5W-97" value="" style="endArrow=none;html=1;rounded=0;entryX=0.5;entryY=0;entryDx=0;entryDy=0;exitX=0.5;exitY=1;exitDx=0;exitDy=0;" edge="1" parent="1" source="ukNlSVkSnuvcewS_Kb5W-82" target="ukNlSVkSnuvcewS_Kb5W-89">
          <mxGeometry relative="1" as="geometry">
            <mxPoint x="520" y="810" as="sourcePoint" />
            <mxPoint x="680" y="810" as="targetPoint" />
          </mxGeometry>
        </mxCell>
        <mxCell id="ukNlSVkSnuvcewS_Kb5W-100" value="&lt;font style=&quot;font-size: 24px; color: rgb(0, 0, 204);&quot; face=&quot;Times New Roman&quot;&gt;Billing&lt;/font&gt;" style="whiteSpace=wrap;html=1;align=center;" vertex="1" parent="1">
          <mxGeometry x="210" y="1200" width="160" height="60" as="geometry" />
        </mxCell>
        <mxCell id="ukNlSVkSnuvcewS_Kb5W-101" value="&lt;font face=&quot;Times New Roman&quot;&gt;&lt;b&gt;BillingID&lt;/b&gt;&lt;/font&gt;" style="ellipse;whiteSpace=wrap;html=1;align=center;fontStyle=4;" vertex="1" parent="1">
          <mxGeometry x="440" y="1270" width="100" height="40" as="geometry" />
        </mxCell>
        <mxCell id="ukNlSVkSnuvcewS_Kb5W-102" value="&lt;font face=&quot;Times New Roman&quot;&gt;&lt;b&gt;TotalCost&lt;/b&gt;&lt;/font&gt;" style="ellipse;whiteSpace=wrap;html=1;align=center;" vertex="1" parent="1">
          <mxGeometry x="330" y="1310" width="100" height="40" as="geometry" />
        </mxCell>
        <mxCell id="ukNlSVkSnuvcewS_Kb5W-104" value="&lt;font face=&quot;Times New Roman&quot;&gt;&lt;b&gt;Services&lt;/b&gt;&lt;/font&gt;" style="ellipse;shape=doubleEllipse;margin=3;whiteSpace=wrap;html=1;align=center;" vertex="1" parent="1">
          <mxGeometry x="190" y="1330" width="100" height="40" as="geometry" />
        </mxCell>
        <mxCell id="ukNlSVkSnuvcewS_Kb5W-105" value="&lt;font face=&quot;Times New Roman&quot;&gt;&lt;b&gt;Date&lt;/b&gt;&lt;/font&gt;" style="ellipse;whiteSpace=wrap;html=1;align=center;" vertex="1" parent="1">
          <mxGeometry x="100" y="1290" width="100" height="40" as="geometry" />
        </mxCell>
        <mxCell id="ukNlSVkSnuvcewS_Kb5W-107" value="" style="endArrow=none;html=1;rounded=0;entryX=0;entryY=0.5;entryDx=0;entryDy=0;exitX=1;exitY=1;exitDx=0;exitDy=0;" edge="1" parent="1" source="ukNlSVkSnuvcewS_Kb5W-100" target="ukNlSVkSnuvcewS_Kb5W-101">
          <mxGeometry relative="1" as="geometry">
            <mxPoint x="70" y="1000" as="sourcePoint" />
            <mxPoint x="230" y="1000" as="targetPoint" />
          </mxGeometry>
        </mxCell>
        <mxCell id="ukNlSVkSnuvcewS_Kb5W-108" value="" style="endArrow=none;html=1;rounded=0;entryX=0;entryY=0.5;entryDx=0;entryDy=0;exitX=0.5;exitY=1;exitDx=0;exitDy=0;" edge="1" parent="1" source="ukNlSVkSnuvcewS_Kb5W-100" target="ukNlSVkSnuvcewS_Kb5W-102">
          <mxGeometry relative="1" as="geometry">
            <mxPoint x="70" y="1000" as="sourcePoint" />
            <mxPoint x="230" y="1000" as="targetPoint" />
          </mxGeometry>
        </mxCell>
        <mxCell id="ukNlSVkSnuvcewS_Kb5W-109" value="" style="endArrow=none;html=1;rounded=0;entryX=0.5;entryY=0;entryDx=0;entryDy=0;exitX=0.25;exitY=1;exitDx=0;exitDy=0;" edge="1" parent="1" source="ukNlSVkSnuvcewS_Kb5W-100" target="ukNlSVkSnuvcewS_Kb5W-104">
          <mxGeometry relative="1" as="geometry">
            <mxPoint x="70" y="1000" as="sourcePoint" />
            <mxPoint x="230" y="1000" as="targetPoint" />
          </mxGeometry>
        </mxCell>
        <mxCell id="ukNlSVkSnuvcewS_Kb5W-110" value="" style="endArrow=none;html=1;rounded=0;entryX=0.5;entryY=0;entryDx=0;entryDy=0;exitX=0;exitY=1;exitDx=0;exitDy=0;" edge="1" parent="1" source="ukNlSVkSnuvcewS_Kb5W-100" target="ukNlSVkSnuvcewS_Kb5W-105">
          <mxGeometry relative="1" as="geometry">
            <mxPoint x="70" y="1000" as="sourcePoint" />
            <mxPoint x="230" y="1000" as="targetPoint" />
          </mxGeometry>
        </mxCell>
        <mxCell id="ukNlSVkSnuvcewS_Kb5W-112" value="&lt;font style=&quot;font-size: 24px; color: rgb(0, 0, 204);&quot; face=&quot;Times New Roman&quot;&gt;Staffs&lt;/font&gt;" style="whiteSpace=wrap;html=1;align=center;" vertex="1" parent="1">
          <mxGeometry x="-260" y="400" width="160" height="60" as="geometry" />
        </mxCell>
        <mxCell id="ukNlSVkSnuvcewS_Kb5W-113" value="&lt;font face=&quot;Times New Roman&quot;&gt;&lt;b&gt;StaffID&lt;/b&gt;&lt;/font&gt;" style="ellipse;whiteSpace=wrap;html=1;align=center;fontStyle=4;" vertex="1" parent="1">
          <mxGeometry x="-420" y="350" width="100" height="40" as="geometry" />
        </mxCell>
        <mxCell id="ukNlSVkSnuvcewS_Kb5W-114" value="&lt;font face=&quot;Times New Roman&quot;&gt;&lt;b&gt;StaffRole&lt;/b&gt;&lt;/font&gt;" style="ellipse;whiteSpace=wrap;html=1;align=center;" vertex="1" parent="1">
          <mxGeometry x="-420" y="400" width="100" height="40" as="geometry" />
        </mxCell>
        <mxCell id="ukNlSVkSnuvcewS_Kb5W-115" value="" style="endArrow=none;html=1;rounded=0;exitX=1;exitY=0.5;exitDx=0;exitDy=0;entryX=0;entryY=0.25;entryDx=0;entryDy=0;" edge="1" parent="1" source="ukNlSVkSnuvcewS_Kb5W-114" target="ukNlSVkSnuvcewS_Kb5W-112">
          <mxGeometry relative="1" as="geometry">
            <mxPoint x="110" y="260" as="sourcePoint" />
            <mxPoint x="270" y="260" as="targetPoint" />
          </mxGeometry>
        </mxCell>
        <mxCell id="ukNlSVkSnuvcewS_Kb5W-116" value="" style="endArrow=none;html=1;rounded=0;exitX=1;exitY=0.5;exitDx=0;exitDy=0;entryX=0;entryY=0;entryDx=0;entryDy=0;" edge="1" parent="1" source="ukNlSVkSnuvcewS_Kb5W-113" target="ukNlSVkSnuvcewS_Kb5W-112">
          <mxGeometry relative="1" as="geometry">
            <mxPoint x="110" y="260" as="sourcePoint" />
            <mxPoint x="270" y="260" as="targetPoint" />
          </mxGeometry>
        </mxCell>
        <mxCell id="ukNlSVkSnuvcewS_Kb5W-117" value="&lt;font face=&quot;Times New Roman&quot;&gt;&lt;b&gt;DoctorName&lt;/b&gt;&lt;/font&gt;" style="ellipse;whiteSpace=wrap;html=1;align=center;" vertex="1" parent="1">
          <mxGeometry x="1005" y="320" width="100" height="40" as="geometry" />
        </mxCell>
        <mxCell id="ukNlSVkSnuvcewS_Kb5W-118" value="&lt;font face=&quot;Times New Roman&quot;&gt;&lt;b&gt;DOB&lt;/b&gt;&lt;/font&gt;" style="ellipse;whiteSpace=wrap;html=1;align=center;" vertex="1" parent="1">
          <mxGeometry x="940" y="280" width="100" height="40" as="geometry" />
        </mxCell>
        <mxCell id="ukNlSVkSnuvcewS_Kb5W-119" value="&lt;font face=&quot;Times New Roman&quot;&gt;&lt;b&gt;Gender&lt;/b&gt;&lt;/font&gt;" style="ellipse;whiteSpace=wrap;html=1;align=center;" vertex="1" parent="1">
          <mxGeometry x="1105" y="310" width="100" height="40" as="geometry" />
        </mxCell>
        <mxCell id="ukNlSVkSnuvcewS_Kb5W-120" value="&lt;b&gt;Age&lt;/b&gt;" style="ellipse;whiteSpace=wrap;html=1;align=center;dashed=1;" vertex="1" parent="1">
          <mxGeometry x="1090" y="470" width="100" height="40" as="geometry" />
        </mxCell>
        <mxCell id="ukNlSVkSnuvcewS_Kb5W-125" value="" style="endArrow=none;html=1;rounded=0;entryX=0.5;entryY=1;entryDx=0;entryDy=0;exitX=1;exitY=0;exitDx=0;exitDy=0;" edge="1" parent="1" source="ukNlSVkSnuvcewS_Kb5W-15" target="ukNlSVkSnuvcewS_Kb5W-119">
          <mxGeometry relative="1" as="geometry">
            <mxPoint x="660" y="630" as="sourcePoint" />
            <mxPoint x="820" y="630" as="targetPoint" />
          </mxGeometry>
        </mxCell>
        <mxCell id="ukNlSVkSnuvcewS_Kb5W-126" value="" style="endArrow=none;html=1;rounded=0;exitX=0.5;exitY=1;exitDx=0;exitDy=0;entryX=0.75;entryY=0;entryDx=0;entryDy=0;" edge="1" parent="1" source="ukNlSVkSnuvcewS_Kb5W-117" target="ukNlSVkSnuvcewS_Kb5W-15">
          <mxGeometry relative="1" as="geometry">
            <mxPoint x="660" y="630" as="sourcePoint" />
            <mxPoint x="820" y="630" as="targetPoint" />
          </mxGeometry>
        </mxCell>
        <mxCell id="ukNlSVkSnuvcewS_Kb5W-127" value="" style="endArrow=none;html=1;rounded=0;entryX=0.5;entryY=1;entryDx=0;entryDy=0;" edge="1" parent="1" source="ukNlSVkSnuvcewS_Kb5W-15" target="ukNlSVkSnuvcewS_Kb5W-118">
          <mxGeometry relative="1" as="geometry">
            <mxPoint x="660" y="630" as="sourcePoint" />
            <mxPoint x="820" y="630" as="targetPoint" />
          </mxGeometry>
        </mxCell>
        <mxCell id="ukNlSVkSnuvcewS_Kb5W-129" value="" style="endArrow=none;html=1;rounded=0;entryX=0.5;entryY=0;entryDx=0;entryDy=0;exitX=1;exitY=1;exitDx=0;exitDy=0;" edge="1" parent="1" source="ukNlSVkSnuvcewS_Kb5W-15" target="ukNlSVkSnuvcewS_Kb5W-120">
          <mxGeometry relative="1" as="geometry">
            <mxPoint x="660" y="630" as="sourcePoint" />
            <mxPoint x="820" y="630" as="targetPoint" />
          </mxGeometry>
        </mxCell>
        <mxCell id="ukNlSVkSnuvcewS_Kb5W-131" value="&lt;font style=&quot;font-size: 24px; color: rgb(0, 0, 204);&quot; face=&quot;Times New Roman&quot;&gt;Users&lt;/font&gt;" style="whiteSpace=wrap;html=1;align=center;" vertex="1" parent="1">
          <mxGeometry x="371" y="400" width="160" height="60" as="geometry" />
        </mxCell>
        <mxCell id="ukNlSVkSnuvcewS_Kb5W-135" value="&lt;font face=&quot;Times New Roman&quot;&gt;&lt;b&gt;Password&lt;/b&gt;&lt;/font&gt;" style="ellipse;whiteSpace=wrap;html=1;align=center;" vertex="1" parent="1">
          <mxGeometry x="508.5" y="350" width="100" height="40" as="geometry" />
        </mxCell>
        <mxCell id="ukNlSVkSnuvcewS_Kb5W-136" value="&lt;font face=&quot;Times New Roman&quot;&gt;&lt;b&gt;UserName&lt;/b&gt;&lt;/font&gt;" style="ellipse;whiteSpace=wrap;html=1;align=center;" vertex="1" parent="1">
          <mxGeometry x="401" y="330" width="100" height="40" as="geometry" />
        </mxCell>
        <mxCell id="ukNlSVkSnuvcewS_Kb5W-137" style="edgeStyle=orthogonalEdgeStyle;rounded=0;orthogonalLoop=1;jettySize=auto;html=1;exitX=0.5;exitY=1;exitDx=0;exitDy=0;" edge="1" parent="1">
          <mxGeometry relative="1" as="geometry">
            <mxPoint x="286" y="350" as="sourcePoint" />
            <mxPoint x="286" y="350" as="targetPoint" />
          </mxGeometry>
        </mxCell>
        <mxCell id="ukNlSVkSnuvcewS_Kb5W-138" value="" style="endArrow=none;html=1;rounded=0;exitX=0;exitY=1;exitDx=0;exitDy=0;entryX=0.75;entryY=0;entryDx=0;entryDy=0;" edge="1" parent="1" source="ukNlSVkSnuvcewS_Kb5W-135" target="ukNlSVkSnuvcewS_Kb5W-131">
          <mxGeometry relative="1" as="geometry">
            <mxPoint x="533.5" y="140" as="sourcePoint" />
            <mxPoint x="548.5" y="460" as="targetPoint" />
          </mxGeometry>
        </mxCell>
        <mxCell id="ukNlSVkSnuvcewS_Kb5W-139" value="" style="endArrow=none;html=1;rounded=0;exitX=0.5;exitY=1;exitDx=0;exitDy=0;entryX=0.5;entryY=0;entryDx=0;entryDy=0;" edge="1" parent="1" source="ukNlSVkSnuvcewS_Kb5W-136" target="ukNlSVkSnuvcewS_Kb5W-131">
          <mxGeometry relative="1" as="geometry">
            <mxPoint x="533.5" y="140" as="sourcePoint" />
            <mxPoint x="693.5" y="140" as="targetPoint" />
          </mxGeometry>
        </mxCell>
        <mxCell id="ukNlSVkSnuvcewS_Kb5W-140" value="" style="endArrow=none;html=1;rounded=0;exitX=1;exitY=1;exitDx=0;exitDy=0;entryX=0.25;entryY=0;entryDx=0;entryDy=0;" edge="1" parent="1" source="ukNlSVkSnuvcewS_Kb5W-143" target="ukNlSVkSnuvcewS_Kb5W-131">
          <mxGeometry relative="1" as="geometry">
            <mxPoint x="333.5" y="490" as="sourcePoint" />
            <mxPoint x="693.5" y="140" as="targetPoint" />
          </mxGeometry>
        </mxCell>
        <mxCell id="ukNlSVkSnuvcewS_Kb5W-143" value="&lt;span style=&quot;border-bottom: 1px dotted&quot;&gt;&lt;font face=&quot;Times New Roman&quot;&gt;&lt;b&gt;UserID&lt;/b&gt;&lt;/font&gt;&lt;/span&gt;" style="ellipse;whiteSpace=wrap;html=1;align=center;fillColor=#FFFFFF;" vertex="1" parent="1">
          <mxGeometry x="298.5" y="340" width="100" height="40" as="geometry" />
        </mxCell>
        <mxCell id="ukNlSVkSnuvcewS_Kb5W-148" value="&lt;font face=&quot;Times New Roman&quot;&gt;&lt;b&gt;Has&lt;/b&gt;&lt;/font&gt;" style="shape=rhombus;perimeter=rhombusPerimeter;whiteSpace=wrap;html=1;align=center;" vertex="1" parent="1">
          <mxGeometry x="40" y="400" width="120" height="60" as="geometry" />
        </mxCell>
        <mxCell id="ukNlSVkSnuvcewS_Kb5W-151" value="" style="endArrow=none;html=1;rounded=0;entryX=0;entryY=0.5;entryDx=0;entryDy=0;exitX=1;exitY=0.5;exitDx=0;exitDy=0;" edge="1" parent="1" source="ukNlSVkSnuvcewS_Kb5W-148" target="ukNlSVkSnuvcewS_Kb5W-131">
          <mxGeometry relative="1" as="geometry">
            <mxPoint x="220" y="520" as="sourcePoint" />
            <mxPoint x="380" y="520" as="targetPoint" />
            <Array as="points">
              <mxPoint x="250" y="430" />
            </Array>
          </mxGeometry>
        </mxCell>
        <mxCell id="ukNlSVkSnuvcewS_Kb5W-152" value="M" style="resizable=0;html=1;whiteSpace=wrap;align=right;verticalAlign=bottom;" connectable="0" vertex="1" parent="ukNlSVkSnuvcewS_Kb5W-151">
          <mxGeometry x="1" relative="1" as="geometry" />
        </mxCell>
        <mxCell id="ukNlSVkSnuvcewS_Kb5W-155" value="" style="shape=link;html=1;rounded=0;entryX=1;entryY=0.5;entryDx=0;entryDy=0;exitX=0;exitY=0.5;exitDx=0;exitDy=0;" edge="1" parent="1" source="ukNlSVkSnuvcewS_Kb5W-148" target="ukNlSVkSnuvcewS_Kb5W-112">
          <mxGeometry relative="1" as="geometry">
            <mxPoint x="220" y="520" as="sourcePoint" />
            <mxPoint x="380" y="520" as="targetPoint" />
            <Array as="points">
              <mxPoint x="20" y="430" />
            </Array>
          </mxGeometry>
        </mxCell>
        <mxCell id="ukNlSVkSnuvcewS_Kb5W-156" value="1" style="resizable=0;html=1;whiteSpace=wrap;align=right;verticalAlign=bottom;" connectable="0" vertex="1" parent="ukNlSVkSnuvcewS_Kb5W-155">
          <mxGeometry x="1" relative="1" as="geometry" />
        </mxCell>
        <mxCell id="ukNlSVkSnuvcewS_Kb5W-157" value="&lt;font face=&quot;Times New Roman&quot;&gt;&lt;b&gt;Can be&lt;/b&gt;&lt;/font&gt;" style="shape=rhombus;perimeter=rhombusPerimeter;whiteSpace=wrap;html=1;align=center;" vertex="1" parent="1">
          <mxGeometry x="660" y="400" width="120" height="60" as="geometry" />
        </mxCell>
        <mxCell id="ukNlSVkSnuvcewS_Kb5W-158" value="" style="shape=link;html=1;rounded=0;entryX=1;entryY=0.5;entryDx=0;entryDy=0;exitX=0;exitY=0.5;exitDx=0;exitDy=0;" edge="1" parent="1" source="ukNlSVkSnuvcewS_Kb5W-157" target="ukNlSVkSnuvcewS_Kb5W-131">
          <mxGeometry relative="1" as="geometry">
            <mxPoint x="300" y="820" as="sourcePoint" />
            <mxPoint x="460" y="820" as="targetPoint" />
          </mxGeometry>
        </mxCell>
        <mxCell id="ukNlSVkSnuvcewS_Kb5W-159" value="1" style="resizable=0;html=1;whiteSpace=wrap;align=right;verticalAlign=bottom;" connectable="0" vertex="1" parent="ukNlSVkSnuvcewS_Kb5W-158">
          <mxGeometry x="1" relative="1" as="geometry" />
        </mxCell>
        <mxCell id="ukNlSVkSnuvcewS_Kb5W-160" value="" style="endArrow=none;html=1;rounded=0;entryX=0;entryY=0.5;entryDx=0;entryDy=0;" edge="1" parent="1" source="ukNlSVkSnuvcewS_Kb5W-157" target="ukNlSVkSnuvcewS_Kb5W-15">
          <mxGeometry relative="1" as="geometry">
            <mxPoint x="300" y="820" as="sourcePoint" />
            <mxPoint x="460" y="820" as="targetPoint" />
          </mxGeometry>
        </mxCell>
        <mxCell id="ukNlSVkSnuvcewS_Kb5W-161" value="1" style="resizable=0;html=1;whiteSpace=wrap;align=right;verticalAlign=bottom;" connectable="0" vertex="1" parent="ukNlSVkSnuvcewS_Kb5W-160">
          <mxGeometry x="1" relative="1" as="geometry" />
        </mxCell>
        <mxCell id="ukNlSVkSnuvcewS_Kb5W-162" value="&lt;font face=&quot;Times New Roman&quot;&gt;&lt;b&gt;Belongs to/ Has&lt;/b&gt;&lt;/font&gt;" style="shape=rhombus;perimeter=rhombusPerimeter;whiteSpace=wrap;html=1;align=center;" vertex="1" parent="1">
          <mxGeometry x="985" y="620" width="120" height="60" as="geometry" />
        </mxCell>
        <mxCell id="ukNlSVkSnuvcewS_Kb5W-163" value="" style="endArrow=none;html=1;rounded=0;entryX=0.5;entryY=1;entryDx=0;entryDy=0;exitX=0.5;exitY=0;exitDx=0;exitDy=0;" edge="1" parent="1" source="ukNlSVkSnuvcewS_Kb5W-162" target="ukNlSVkSnuvcewS_Kb5W-15">
          <mxGeometry relative="1" as="geometry">
            <mxPoint x="680" y="680" as="sourcePoint" />
            <mxPoint x="840" y="680" as="targetPoint" />
            <Array as="points">
              <mxPoint x="1045" y="600" />
              <mxPoint x="990" y="600" />
            </Array>
          </mxGeometry>
        </mxCell>
        <mxCell id="ukNlSVkSnuvcewS_Kb5W-164" value="M" style="resizable=0;html=1;whiteSpace=wrap;align=right;verticalAlign=bottom;" connectable="0" vertex="1" parent="ukNlSVkSnuvcewS_Kb5W-163">
          <mxGeometry x="1" relative="1" as="geometry" />
        </mxCell>
        <mxCell id="ukNlSVkSnuvcewS_Kb5W-165" value="" style="endArrow=none;html=1;rounded=0;entryX=0.438;entryY=0;entryDx=0;entryDy=0;entryPerimeter=0;exitX=0.5;exitY=1;exitDx=0;exitDy=0;" edge="1" parent="1" source="ukNlSVkSnuvcewS_Kb5W-162" target="ukNlSVkSnuvcewS_Kb5W-22">
          <mxGeometry relative="1" as="geometry">
            <mxPoint x="680" y="680" as="sourcePoint" />
            <mxPoint x="840" y="680" as="targetPoint" />
            <Array as="points">
              <mxPoint x="1045" y="720" />
              <mxPoint x="1160" y="720" />
            </Array>
          </mxGeometry>
        </mxCell>
        <mxCell id="ukNlSVkSnuvcewS_Kb5W-166" value="1" style="resizable=0;html=1;whiteSpace=wrap;align=right;verticalAlign=bottom;" connectable="0" vertex="1" parent="ukNlSVkSnuvcewS_Kb5W-165">
          <mxGeometry x="1" relative="1" as="geometry" />
        </mxCell>
        <mxCell id="ukNlSVkSnuvcewS_Kb5W-167" value="&lt;font face=&quot;Times New Roman&quot;&gt;&lt;b&gt;Set/ Belongs to&lt;/b&gt;&lt;/font&gt;" style="shape=rhombus;perimeter=rhombusPerimeter;whiteSpace=wrap;html=1;align=center;" vertex="1" parent="1">
          <mxGeometry x="600" y="550" width="120" height="60" as="geometry" />
        </mxCell>
        <mxCell id="ukNlSVkSnuvcewS_Kb5W-168" value="" style="endArrow=none;html=1;rounded=0;entryX=1;entryY=0.5;entryDx=0;entryDy=0;exitX=0.5;exitY=1;exitDx=0;exitDy=0;" edge="1" parent="1" source="ukNlSVkSnuvcewS_Kb5W-167" target="ukNlSVkSnuvcewS_Kb5W-47">
          <mxGeometry relative="1" as="geometry">
            <mxPoint x="320" y="680" as="sourcePoint" />
            <mxPoint x="480" y="680" as="targetPoint" />
            <Array as="points">
              <mxPoint x="660" y="760" />
            </Array>
          </mxGeometry>
        </mxCell>
        <mxCell id="ukNlSVkSnuvcewS_Kb5W-169" value="M" style="resizable=0;html=1;whiteSpace=wrap;align=right;verticalAlign=bottom;" connectable="0" vertex="1" parent="ukNlSVkSnuvcewS_Kb5W-168">
          <mxGeometry x="1" relative="1" as="geometry" />
        </mxCell>
        <mxCell id="ukNlSVkSnuvcewS_Kb5W-172" value="" style="shape=link;html=1;rounded=0;entryX=0;entryY=0.75;entryDx=0;entryDy=0;exitX=1;exitY=0.5;exitDx=0;exitDy=0;" edge="1" parent="1" source="ukNlSVkSnuvcewS_Kb5W-167" target="ukNlSVkSnuvcewS_Kb5W-15">
          <mxGeometry relative="1" as="geometry">
            <mxPoint x="320" y="680" as="sourcePoint" />
            <mxPoint x="480" y="680" as="targetPoint" />
            <Array as="points">
              <mxPoint x="850" y="579" />
              <mxPoint x="850" y="445" />
            </Array>
          </mxGeometry>
        </mxCell>
        <mxCell id="ukNlSVkSnuvcewS_Kb5W-173" value="1" style="resizable=0;html=1;whiteSpace=wrap;align=right;verticalAlign=bottom;" connectable="0" vertex="1" parent="ukNlSVkSnuvcewS_Kb5W-172">
          <mxGeometry x="1" relative="1" as="geometry" />
        </mxCell>
        <mxCell id="ukNlSVkSnuvcewS_Kb5W-174" value="&lt;font face=&quot;Times New Roman&quot;&gt;&lt;b&gt;Has/ Belongs to&lt;/b&gt;&lt;/font&gt;" style="shape=rhombus;perimeter=rhombusPerimeter;whiteSpace=wrap;html=1;align=center;" vertex="1" parent="1">
          <mxGeometry x="-10" y="750" width="120" height="60" as="geometry" />
        </mxCell>
        <mxCell id="ukNlSVkSnuvcewS_Kb5W-175" value="" style="shape=link;html=1;rounded=0;entryX=1;entryY=0.5;entryDx=0;entryDy=0;" edge="1" parent="1" source="ukNlSVkSnuvcewS_Kb5W-174" target="ukNlSVkSnuvcewS_Kb5W-2">
          <mxGeometry relative="1" as="geometry">
            <mxPoint x="120" y="840" as="sourcePoint" />
            <mxPoint x="280" y="840" as="targetPoint" />
          </mxGeometry>
        </mxCell>
        <mxCell id="ukNlSVkSnuvcewS_Kb5W-176" value="1" style="resizable=0;html=1;whiteSpace=wrap;align=right;verticalAlign=bottom;" connectable="0" vertex="1" parent="ukNlSVkSnuvcewS_Kb5W-175">
          <mxGeometry x="1" relative="1" as="geometry" />
        </mxCell>
        <mxCell id="ukNlSVkSnuvcewS_Kb5W-177" value="" style="shape=link;html=1;rounded=0;exitX=1;exitY=0.5;exitDx=0;exitDy=0;entryX=0;entryY=0.75;entryDx=0;entryDy=0;" edge="1" parent="1" source="ukNlSVkSnuvcewS_Kb5W-174" target="ukNlSVkSnuvcewS_Kb5W-47">
          <mxGeometry relative="1" as="geometry">
            <mxPoint x="120" y="840" as="sourcePoint" />
            <mxPoint x="280" y="840" as="targetPoint" />
          </mxGeometry>
        </mxCell>
        <mxCell id="ukNlSVkSnuvcewS_Kb5W-178" value="M" style="resizable=0;html=1;whiteSpace=wrap;align=right;verticalAlign=bottom;" connectable="0" vertex="1" parent="ukNlSVkSnuvcewS_Kb5W-177">
          <mxGeometry x="1" relative="1" as="geometry" />
        </mxCell>
        <mxCell id="ukNlSVkSnuvcewS_Kb5W-180" value="&lt;font face=&quot;Times New Roman&quot;&gt;&lt;b&gt;Set/ Belongs to&lt;/b&gt;&lt;/font&gt;" style="shape=rhombus;perimeter=rhombusPerimeter;whiteSpace=wrap;html=1;align=center;" vertex="1" parent="1">
          <mxGeometry x="740" y="730" width="120" height="60" as="geometry" />
        </mxCell>
        <mxCell id="ukNlSVkSnuvcewS_Kb5W-181" value="" style="endArrow=none;html=1;rounded=0;entryX=0.5;entryY=0;entryDx=0;entryDy=0;exitX=0.5;exitY=1;exitDx=0;exitDy=0;" edge="1" parent="1" source="ukNlSVkSnuvcewS_Kb5W-180" target="ukNlSVkSnuvcewS_Kb5W-82">
          <mxGeometry relative="1" as="geometry">
            <mxPoint x="450" y="720" as="sourcePoint" />
            <mxPoint x="610" y="720" as="targetPoint" />
          </mxGeometry>
        </mxCell>
        <mxCell id="ukNlSVkSnuvcewS_Kb5W-182" value="M" style="resizable=0;html=1;whiteSpace=wrap;align=right;verticalAlign=bottom;" connectable="0" vertex="1" parent="ukNlSVkSnuvcewS_Kb5W-181">
          <mxGeometry x="1" relative="1" as="geometry" />
        </mxCell>
        <mxCell id="ukNlSVkSnuvcewS_Kb5W-183" value="" style="shape=link;html=1;rounded=0;entryX=0.25;entryY=1;entryDx=0;entryDy=0;exitX=0.5;exitY=0;exitDx=0;exitDy=0;" edge="1" parent="1" source="ukNlSVkSnuvcewS_Kb5W-180" target="ukNlSVkSnuvcewS_Kb5W-15">
          <mxGeometry relative="1" as="geometry">
            <mxPoint x="450" y="720" as="sourcePoint" />
            <mxPoint x="610" y="720" as="targetPoint" />
            <Array as="points">
              <mxPoint x="800" y="680" />
              <mxPoint x="950" y="680" />
            </Array>
          </mxGeometry>
        </mxCell>
        <mxCell id="ukNlSVkSnuvcewS_Kb5W-184" value="1" style="resizable=0;html=1;whiteSpace=wrap;align=right;verticalAlign=bottom;" connectable="0" vertex="1" parent="ukNlSVkSnuvcewS_Kb5W-183">
          <mxGeometry x="1" relative="1" as="geometry" />
        </mxCell>
        <mxCell id="ukNlSVkSnuvcewS_Kb5W-185" value="&lt;font face=&quot;Times New Roman&quot;&gt;&lt;b&gt;Has/ Belongs to&lt;/b&gt;&lt;/font&gt;" style="shape=rhombus;perimeter=rhombusPerimeter;whiteSpace=wrap;html=1;align=center;" vertex="1" parent="1">
          <mxGeometry x="260" y="960" width="120" height="60" as="geometry" />
        </mxCell>
        <mxCell id="ukNlSVkSnuvcewS_Kb5W-186" value="" style="shape=link;html=1;rounded=0;exitX=1;exitY=0.5;exitDx=0;exitDy=0;entryX=0;entryY=0.5;entryDx=0;entryDy=0;" edge="1" parent="1" source="ukNlSVkSnuvcewS_Kb5W-185" target="ukNlSVkSnuvcewS_Kb5W-82">
          <mxGeometry relative="1" as="geometry">
            <mxPoint x="130" y="905" as="sourcePoint" />
            <mxPoint x="340" y="900" as="targetPoint" />
            <Array as="points">
              <mxPoint x="520" y="990" />
              <mxPoint x="520" y="920" />
            </Array>
          </mxGeometry>
        </mxCell>
        <mxCell id="ukNlSVkSnuvcewS_Kb5W-187" value="M" style="resizable=0;html=1;whiteSpace=wrap;align=right;verticalAlign=bottom;" connectable="0" vertex="1" parent="ukNlSVkSnuvcewS_Kb5W-186">
          <mxGeometry x="1" relative="1" as="geometry" />
        </mxCell>
        <mxCell id="ukNlSVkSnuvcewS_Kb5W-188" value="" style="shape=link;html=1;rounded=0;entryX=0.75;entryY=1;entryDx=0;entryDy=0;exitX=0;exitY=0.5;exitDx=0;exitDy=0;" edge="1" parent="1" source="ukNlSVkSnuvcewS_Kb5W-185" target="ukNlSVkSnuvcewS_Kb5W-2">
          <mxGeometry relative="1" as="geometry">
            <mxPoint x="120" y="940" as="sourcePoint" />
            <mxPoint x="20" y="940" as="targetPoint" />
            <Array as="points">
              <mxPoint y="990" />
              <mxPoint x="-150" y="990" />
            </Array>
          </mxGeometry>
        </mxCell>
        <mxCell id="ukNlSVkSnuvcewS_Kb5W-189" value="1" style="resizable=0;html=1;whiteSpace=wrap;align=right;verticalAlign=bottom;" connectable="0" vertex="1" parent="ukNlSVkSnuvcewS_Kb5W-188">
          <mxGeometry x="1" relative="1" as="geometry" />
        </mxCell>
        <mxCell id="ukNlSVkSnuvcewS_Kb5W-190" value="&lt;span style=&quot;color: rgb(0, 0, 204); font-family: &amp;quot;Times New Roman&amp;quot;; font-size: 24px;&quot;&gt;Admissions&lt;/span&gt;" style="shape=ext;margin=3;double=1;whiteSpace=wrap;html=1;align=center;" vertex="1" parent="1">
          <mxGeometry x="-280" y="1160" width="140" height="60" as="geometry" />
        </mxCell>
        <mxCell id="ukNlSVkSnuvcewS_Kb5W-192" value="" style="shape=link;html=1;rounded=0;entryX=0.25;entryY=1;entryDx=0;entryDy=0;exitX=0.5;exitY=0;exitDx=0;exitDy=0;" edge="1" parent="1" source="ukNlSVkSnuvcewS_Kb5W-199" target="ukNlSVkSnuvcewS_Kb5W-2">
          <mxGeometry relative="1" as="geometry">
            <mxPoint x="-230" y="1010" as="sourcePoint" />
            <mxPoint x="-50" y="790" as="targetPoint" />
          </mxGeometry>
        </mxCell>
        <mxCell id="ukNlSVkSnuvcewS_Kb5W-193" value="1" style="resizable=0;html=1;whiteSpace=wrap;align=right;verticalAlign=bottom;" connectable="0" vertex="1" parent="ukNlSVkSnuvcewS_Kb5W-192">
          <mxGeometry x="1" relative="1" as="geometry" />
        </mxCell>
        <mxCell id="ukNlSVkSnuvcewS_Kb5W-199" value="&lt;b style=&quot;font-family: &amp;quot;Times New Roman&amp;quot;;&quot;&gt;Has/ Belongs to&lt;/b&gt;" style="shape=rhombus;double=1;perimeter=rhombusPerimeter;whiteSpace=wrap;html=1;align=center;" vertex="1" parent="1">
          <mxGeometry x="-290" y="1010" width="120" height="60" as="geometry" />
        </mxCell>
        <mxCell id="ukNlSVkSnuvcewS_Kb5W-200" value="" style="shape=link;html=1;rounded=0;entryX=0.5;entryY=0;entryDx=0;entryDy=0;exitX=1;exitY=0.5;exitDx=0;exitDy=0;" edge="1" parent="1" source="ukNlSVkSnuvcewS_Kb5W-199" target="ukNlSVkSnuvcewS_Kb5W-190">
          <mxGeometry relative="1" as="geometry">
            <mxPoint x="120" y="1140" as="sourcePoint" />
            <mxPoint x="280" y="1140" as="targetPoint" />
            <Array as="points">
              <mxPoint x="-170" y="1120" />
              <mxPoint x="-210" y="1120" />
            </Array>
          </mxGeometry>
        </mxCell>
        <mxCell id="ukNlSVkSnuvcewS_Kb5W-201" value="1" style="resizable=0;html=1;whiteSpace=wrap;align=right;verticalAlign=bottom;" connectable="0" vertex="1" parent="ukNlSVkSnuvcewS_Kb5W-200">
          <mxGeometry x="1" relative="1" as="geometry" />
        </mxCell>
        <mxCell id="ukNlSVkSnuvcewS_Kb5W-202" value="&lt;b style=&quot;font-family: &amp;quot;Times New Roman&amp;quot;;&quot;&gt;Host&lt;/b&gt;" style="shape=rhombus;double=1;perimeter=rhombusPerimeter;whiteSpace=wrap;html=1;align=center;" vertex="1" parent="1">
          <mxGeometry x="-260" y="1340" width="120" height="60" as="geometry" />
        </mxCell>
        <mxCell id="ukNlSVkSnuvcewS_Kb5W-203" value="" style="shape=link;html=1;rounded=0;entryX=0.25;entryY=1;entryDx=0;entryDy=0;exitX=0.5;exitY=0;exitDx=0;exitDy=0;" edge="1" parent="1" source="ukNlSVkSnuvcewS_Kb5W-202" target="ukNlSVkSnuvcewS_Kb5W-190">
          <mxGeometry relative="1" as="geometry">
            <mxPoint x="120" y="1140" as="sourcePoint" />
            <mxPoint x="280" y="1140" as="targetPoint" />
            <Array as="points">
              <mxPoint x="-200" y="1310" />
              <mxPoint x="-245" y="1310" />
            </Array>
          </mxGeometry>
        </mxCell>
        <mxCell id="ukNlSVkSnuvcewS_Kb5W-204" value="1" style="resizable=0;html=1;whiteSpace=wrap;align=right;verticalAlign=bottom;" connectable="0" vertex="1" parent="ukNlSVkSnuvcewS_Kb5W-203">
          <mxGeometry x="1" relative="1" as="geometry" />
        </mxCell>
        <mxCell id="ukNlSVkSnuvcewS_Kb5W-205" value="" style="endArrow=none;html=1;rounded=0;entryX=0.5;entryY=0;entryDx=0;entryDy=0;exitX=0.5;exitY=1;exitDx=0;exitDy=0;" edge="1" parent="1" source="ukNlSVkSnuvcewS_Kb5W-202" target="ukNlSVkSnuvcewS_Kb5W-60">
          <mxGeometry relative="1" as="geometry">
            <mxPoint x="120" y="1140" as="sourcePoint" />
            <mxPoint x="280" y="1140" as="targetPoint" />
          </mxGeometry>
        </mxCell>
        <mxCell id="ukNlSVkSnuvcewS_Kb5W-206" value="1" style="resizable=0;html=1;whiteSpace=wrap;align=right;verticalAlign=bottom;" connectable="0" vertex="1" parent="ukNlSVkSnuvcewS_Kb5W-205">
          <mxGeometry x="1" relative="1" as="geometry" />
        </mxCell>
        <mxCell id="ukNlSVkSnuvcewS_Kb5W-207" value="&lt;font face=&quot;Times New Roman&quot;&gt;&lt;b&gt;Has/ Belongs to&lt;/b&gt;&lt;/font&gt;" style="shape=rhombus;perimeter=rhombusPerimeter;whiteSpace=wrap;html=1;align=center;" vertex="1" parent="1">
          <mxGeometry x="60" y="1040" width="120" height="60" as="geometry" />
        </mxCell>
        <mxCell id="ukNlSVkSnuvcewS_Kb5W-208" value="" style="shape=link;html=1;rounded=0;entryX=0.5;entryY=1;entryDx=0;entryDy=0;exitX=0;exitY=0.5;exitDx=0;exitDy=0;" edge="1" parent="1" source="ukNlSVkSnuvcewS_Kb5W-207" target="ukNlSVkSnuvcewS_Kb5W-2">
          <mxGeometry relative="1" as="geometry">
            <mxPoint x="130" y="1140" as="sourcePoint" />
            <mxPoint x="290" y="1140" as="targetPoint" />
            <Array as="points">
              <mxPoint x="-120" y="1070" />
              <mxPoint x="-120" y="1020" />
              <mxPoint x="-170" y="1020" />
              <mxPoint x="-170" y="970" />
              <mxPoint x="-170" y="870" />
              <mxPoint x="-190" y="870" />
            </Array>
          </mxGeometry>
        </mxCell>
        <mxCell id="ukNlSVkSnuvcewS_Kb5W-209" value="1" style="resizable=0;html=1;whiteSpace=wrap;align=right;verticalAlign=bottom;" connectable="0" vertex="1" parent="ukNlSVkSnuvcewS_Kb5W-208">
          <mxGeometry x="1" relative="1" as="geometry" />
        </mxCell>
        <mxCell id="ukNlSVkSnuvcewS_Kb5W-210" value="" style="shape=link;html=1;rounded=0;entryX=0.5;entryY=0;entryDx=0;entryDy=0;exitX=1;exitY=0.5;exitDx=0;exitDy=0;" edge="1" parent="1" source="ukNlSVkSnuvcewS_Kb5W-207" target="ukNlSVkSnuvcewS_Kb5W-100">
          <mxGeometry relative="1" as="geometry">
            <mxPoint x="130" y="1140" as="sourcePoint" />
            <mxPoint x="290" y="1140" as="targetPoint" />
            <Array as="points">
              <mxPoint x="290" y="1070" />
            </Array>
          </mxGeometry>
        </mxCell>
        <mxCell id="ukNlSVkSnuvcewS_Kb5W-211" value="M" style="resizable=0;html=1;whiteSpace=wrap;align=right;verticalAlign=bottom;" connectable="0" vertex="1" parent="ukNlSVkSnuvcewS_Kb5W-210">
          <mxGeometry x="1" relative="1" as="geometry" />
        </mxCell>
        <mxCell id="ukNlSVkSnuvcewS_Kb5W-212" value="&lt;font style=&quot;font-size: 24px; color: rgb(0, 0, 204);&quot; face=&quot;Times New Roman&quot;&gt;Receptionist&lt;/font&gt;" style="whiteSpace=wrap;html=1;align=center;" vertex="1" parent="1">
          <mxGeometry x="-640" y="550" width="140" height="60" as="geometry" />
        </mxCell>
        <mxCell id="ukNlSVkSnuvcewS_Kb5W-213" value="&lt;font face=&quot;Times New Roman&quot;&gt;&lt;b&gt;Can be&lt;/b&gt;&lt;/font&gt;" style="shape=rhombus;perimeter=rhombusPerimeter;whiteSpace=wrap;html=1;align=center;" vertex="1" parent="1">
          <mxGeometry x="-140" y="550" width="120" height="60" as="geometry" />
        </mxCell>
        <mxCell id="ukNlSVkSnuvcewS_Kb5W-214" value="" style="shape=link;html=1;rounded=0;entryX=0.5;entryY=1;entryDx=0;entryDy=0;exitX=1;exitY=0.5;exitDx=0;exitDy=0;" edge="1" parent="1" source="ukNlSVkSnuvcewS_Kb5W-213" target="ukNlSVkSnuvcewS_Kb5W-131">
          <mxGeometry relative="1" as="geometry">
            <mxPoint x="599" y="590" as="sourcePoint" />
            <mxPoint x="470" y="590" as="targetPoint" />
            <Array as="points">
              <mxPoint x="451" y="580" />
            </Array>
          </mxGeometry>
        </mxCell>
        <mxCell id="ukNlSVkSnuvcewS_Kb5W-215" value="1" style="resizable=0;html=1;whiteSpace=wrap;align=right;verticalAlign=bottom;" connectable="0" vertex="1" parent="ukNlSVkSnuvcewS_Kb5W-214">
          <mxGeometry x="1" relative="1" as="geometry" />
        </mxCell>
        <mxCell id="ukNlSVkSnuvcewS_Kb5W-216" value="" style="endArrow=none;html=1;rounded=0;entryX=1;entryY=0.5;entryDx=0;entryDy=0;exitX=0;exitY=0.5;exitDx=0;exitDy=0;" edge="1" parent="1" source="ukNlSVkSnuvcewS_Kb5W-213" target="ukNlSVkSnuvcewS_Kb5W-212">
          <mxGeometry relative="1" as="geometry">
            <mxPoint x="740" y="470" as="sourcePoint" />
            <mxPoint x="870" y="470" as="targetPoint" />
          </mxGeometry>
        </mxCell>
        <mxCell id="ukNlSVkSnuvcewS_Kb5W-217" value="1" style="resizable=0;html=1;whiteSpace=wrap;align=right;verticalAlign=bottom;" connectable="0" vertex="1" parent="ukNlSVkSnuvcewS_Kb5W-216">
          <mxGeometry x="1" relative="1" as="geometry" />
        </mxCell>
        <mxCell id="ukNlSVkSnuvcewS_Kb5W-218" value="&lt;font style=&quot;color: rgb(0, 0, 0);&quot; face=&quot;Times New Roman&quot;&gt;&lt;b style=&quot;&quot;&gt;ReceptionistID&lt;/b&gt;&lt;/font&gt;" style="ellipse;whiteSpace=wrap;html=1;align=center;fontStyle=4;" vertex="1" parent="1">
          <mxGeometry x="-660" y="470" width="100" height="40" as="geometry" />
        </mxCell>
        <mxCell id="ukNlSVkSnuvcewS_Kb5W-219" value="&lt;font face=&quot;Times New Roman&quot;&gt;&lt;b&gt;ReceptionistName&lt;/b&gt;&lt;/font&gt;" style="ellipse;whiteSpace=wrap;html=1;align=center;" vertex="1" parent="1">
          <mxGeometry x="-750" y="500" width="100" height="40" as="geometry" />
        </mxCell>
        <mxCell id="ukNlSVkSnuvcewS_Kb5W-224" value="" style="endArrow=none;html=1;rounded=0;exitX=0;exitY=0.25;exitDx=0;exitDy=0;entryX=1;entryY=1;entryDx=0;entryDy=0;" edge="1" parent="1" source="ukNlSVkSnuvcewS_Kb5W-212" target="ukNlSVkSnuvcewS_Kb5W-219">
          <mxGeometry relative="1" as="geometry">
            <mxPoint x="-450" y="520" as="sourcePoint" />
            <mxPoint x="-290" y="520" as="targetPoint" />
          </mxGeometry>
        </mxCell>
        <mxCell id="ukNlSVkSnuvcewS_Kb5W-225" value="" style="endArrow=none;html=1;rounded=0;exitX=0.25;exitY=0;exitDx=0;exitDy=0;entryX=0.5;entryY=1;entryDx=0;entryDy=0;" edge="1" parent="1" source="ukNlSVkSnuvcewS_Kb5W-212" target="ukNlSVkSnuvcewS_Kb5W-218">
          <mxGeometry relative="1" as="geometry">
            <mxPoint x="-450" y="520" as="sourcePoint" />
            <mxPoint x="-290" y="520" as="targetPoint" />
          </mxGeometry>
        </mxCell>
        <mxCell id="ukNlSVkSnuvcewS_Kb5W-228" value="&lt;font face=&quot;Times New Roman&quot;&gt;&lt;b&gt;Set&lt;/b&gt;&lt;/font&gt;" style="shape=rhombus;double=1;perimeter=rhombusPerimeter;whiteSpace=wrap;html=1;align=center;" vertex="1" parent="1">
          <mxGeometry x="-665" y="940" width="120" height="60" as="geometry" />
        </mxCell>
        <mxCell id="ukNlSVkSnuvcewS_Kb5W-229" value="" style="shape=link;html=1;rounded=0;entryX=0.25;entryY=1;entryDx=0;entryDy=0;exitX=0.5;exitY=0;exitDx=0;exitDy=0;" edge="1" parent="1" source="ukNlSVkSnuvcewS_Kb5W-228" target="ukNlSVkSnuvcewS_Kb5W-212">
          <mxGeometry relative="1" as="geometry">
            <mxPoint x="-450" y="840" as="sourcePoint" />
            <mxPoint x="-290" y="840" as="targetPoint" />
          </mxGeometry>
        </mxCell>
        <mxCell id="ukNlSVkSnuvcewS_Kb5W-230" value="1" style="resizable=0;html=1;whiteSpace=wrap;align=right;verticalAlign=bottom;" connectable="0" vertex="1" parent="ukNlSVkSnuvcewS_Kb5W-229">
          <mxGeometry x="1" relative="1" as="geometry" />
        </mxCell>
        <mxCell id="ukNlSVkSnuvcewS_Kb5W-231" value="" style="shape=link;html=1;rounded=0;entryX=0;entryY=0.5;entryDx=0;entryDy=0;exitX=0.5;exitY=1;exitDx=0;exitDy=0;" edge="1" parent="1" source="ukNlSVkSnuvcewS_Kb5W-228" target="ukNlSVkSnuvcewS_Kb5W-190">
          <mxGeometry relative="1" as="geometry">
            <mxPoint x="-450" y="840" as="sourcePoint" />
            <mxPoint x="-290" y="840" as="targetPoint" />
            <Array as="points">
              <mxPoint x="-605" y="1190" />
            </Array>
          </mxGeometry>
        </mxCell>
        <mxCell id="ukNlSVkSnuvcewS_Kb5W-232" value="M" style="resizable=0;html=1;whiteSpace=wrap;align=right;verticalAlign=bottom;" connectable="0" vertex="1" parent="ukNlSVkSnuvcewS_Kb5W-231">
          <mxGeometry x="1" relative="1" as="geometry" />
        </mxCell>
        <mxCell id="6TcRvzZHRL1ZmUnIKj4y-1" value="&lt;b&gt;&lt;font face=&quot;Times New Roman&quot;&gt;Generate/ has&lt;/font&gt;&lt;/b&gt;" style="shape=rhombus;perimeter=rhombusPerimeter;whiteSpace=wrap;html=1;align=center;" vertex="1" parent="1">
          <mxGeometry x="510" y="1070" width="120" height="60" as="geometry" />
        </mxCell>
        <mxCell id="6TcRvzZHRL1ZmUnIKj4y-2" value="" style="shape=link;html=1;rounded=0;entryX=0;entryY=0.75;entryDx=0;entryDy=0;exitX=0.5;exitY=0;exitDx=0;exitDy=0;" edge="1" parent="1" source="6TcRvzZHRL1ZmUnIKj4y-1" target="ukNlSVkSnuvcewS_Kb5W-82">
          <mxGeometry relative="1" as="geometry">
            <mxPoint x="310" y="960" as="sourcePoint" />
            <mxPoint x="470" y="960" as="targetPoint" />
            <Array as="points">
              <mxPoint x="570" y="935" />
            </Array>
          </mxGeometry>
        </mxCell>
        <mxCell id="6TcRvzZHRL1ZmUnIKj4y-3" value="1" style="resizable=0;html=1;whiteSpace=wrap;align=right;verticalAlign=bottom;" connectable="0" vertex="1" parent="6TcRvzZHRL1ZmUnIKj4y-2">
          <mxGeometry x="1" relative="1" as="geometry" />
        </mxCell>
        <mxCell id="6TcRvzZHRL1ZmUnIKj4y-4" value="" style="shape=link;html=1;rounded=0;entryX=1;entryY=0.5;entryDx=0;entryDy=0;exitX=0.5;exitY=1;exitDx=0;exitDy=0;" edge="1" parent="1" source="6TcRvzZHRL1ZmUnIKj4y-1" target="ukNlSVkSnuvcewS_Kb5W-100">
          <mxGeometry relative="1" as="geometry">
            <mxPoint x="310" y="960" as="sourcePoint" />
            <mxPoint x="470" y="960" as="targetPoint" />
            <Array as="points">
              <mxPoint x="570" y="1230" />
            </Array>
          </mxGeometry>
        </mxCell>
        <mxCell id="6TcRvzZHRL1ZmUnIKj4y-5" value="1" style="resizable=0;html=1;whiteSpace=wrap;align=right;verticalAlign=bottom;" connectable="0" vertex="1" parent="6TcRvzZHRL1ZmUnIKj4y-4">
          <mxGeometry x="1" relative="1" as="geometry" />
        </mxCell>
      </root>
    </mxGraphModel>
  </diagram>
  <diagram id="ChpaO3lGEaWE4Zlcx9jq" name="Page-2">
    <mxGraphModel dx="2377" dy="1352" grid="1" gridSize="10" guides="1" tooltips="1" connect="1" arrows="1" fold="1" page="1" pageScale="1" pageWidth="850" pageHeight="1100" math="0" shadow="0">
      <root>
        <mxCell id="0" />
        <mxCell id="1" parent="0" />
        <mxCell id="joaRldD6EEz2nMiDA5Nj-1" value="" style="whiteSpace=wrap;html=1;align=center;fillColor=#E4F6FF;" vertex="1" parent="1">
          <mxGeometry x="642" y="421" width="250" height="80" as="geometry" />
        </mxCell>
        <mxCell id="ehMK4qjCcPKEEBbjMVqy-1" value="&lt;h1&gt;&lt;font style=&quot;font-size: 36px; color: rgb(255, 0, 0);&quot; face=&quot;Times New Roman&quot;&gt; Hospital Management System - ERD&lt;/font&gt;&lt;/h1&gt;" style="text;html=1;align=center;verticalAlign=middle;whiteSpace=wrap;rounded=0;" vertex="1" parent="1">
          <mxGeometry x="542" y="110" width="640" height="80" as="geometry" />
        </mxCell>
        <mxCell id="ehMK4qjCcPKEEBbjMVqy-2" value="&lt;font style=&quot;font-size: 18px;&quot; face=&quot;Times New Roman&quot;&gt;&lt;b&gt;PK&lt;/b&gt;&lt;/font&gt;" style="whiteSpace=wrap;html=1;align=center;fillColor=#E4F6FF;" vertex="1" parent="1">
          <mxGeometry x="40" y="80" width="120" height="40" as="geometry" />
        </mxCell>
        <mxCell id="ehMK4qjCcPKEEBbjMVqy-3" value="&lt;font style=&quot;font-size: 18px;&quot; face=&quot;Times New Roman&quot;&gt;&lt;b&gt;FK&lt;/b&gt;&lt;/font&gt;" style="whiteSpace=wrap;html=1;align=center;fillColor=#CAFFEB;" vertex="1" parent="1">
          <mxGeometry x="40" y="150" width="120" height="40" as="geometry" />
        </mxCell>
        <mxCell id="ehMK4qjCcPKEEBbjMVqy-4" value="&lt;font style=&quot;font-size: 18px;&quot; face=&quot;Times New Roman&quot;&gt;&lt;b&gt;ParK&lt;/b&gt;&lt;/font&gt;" style="whiteSpace=wrap;html=1;align=center;fillColor=#FFCC99;" vertex="1" parent="1">
          <mxGeometry x="40" y="220" width="120" height="40" as="geometry" />
        </mxCell>
        <mxCell id="ehMK4qjCcPKEEBbjMVqy-5" value="&lt;font style=&quot;font-size: 18px;&quot; face=&quot;Times New Roman&quot;&gt;&lt;b&gt;A&lt;/b&gt;&lt;/font&gt;" style="whiteSpace=wrap;html=1;align=center;" vertex="1" parent="1">
          <mxGeometry x="40" y="290" width="120" height="40" as="geometry" />
        </mxCell>
        <mxCell id="KluzuTBEIzvZNrzuxgku-1" value="&lt;span style=&quot;color: rgb(0, 0, 204); font-family: &amp;quot;Times New Roman&amp;quot;;&quot;&gt;&lt;b style=&quot;&quot;&gt;&lt;font style=&quot;font-size: 36px;&quot;&gt;Staffs&lt;/font&gt;&lt;/b&gt;&lt;/span&gt;" style="text;html=1;align=center;verticalAlign=middle;whiteSpace=wrap;rounded=0;" vertex="1" parent="1">
          <mxGeometry x="150" y="368" width="110" height="40" as="geometry" />
        </mxCell>
        <mxCell id="HGeV0f5Xq7yXwdrrObhG-1" value="&lt;b style=&quot;font-family: &amp;quot;Times New Roman&amp;quot;; text-decoration-line: underline;&quot;&gt;&lt;font style=&quot;font-size: 18px;&quot;&gt;StaffID&lt;/font&gt;&lt;/b&gt;" style="whiteSpace=wrap;html=1;align=center;fillColor=#E4F6FF;" vertex="1" parent="1">
          <mxGeometry x="170" y="440" width="120" height="40" as="geometry" />
        </mxCell>
        <mxCell id="HGeV0f5Xq7yXwdrrObhG-2" value="&lt;b style=&quot;font-family: &amp;quot;Times New Roman&amp;quot;;&quot;&gt;&lt;font style=&quot;font-size: 18px;&quot;&gt;StaffRole&lt;/font&gt;&lt;/b&gt;" style="whiteSpace=wrap;html=1;align=center;" vertex="1" parent="1">
          <mxGeometry x="290" y="440" width="120" height="40" as="geometry" />
        </mxCell>
        <mxCell id="n0xx39usQA2QRhhY8EIB-1" value="&lt;span style=&quot;color: rgb(0, 0, 204); font-family: &amp;quot;Times New Roman&amp;quot;;&quot;&gt;&lt;font style=&quot;font-size: 36px;&quot;&gt;&lt;b&gt;Users&lt;/b&gt;&lt;/font&gt;&lt;/span&gt;" style="text;html=1;align=center;verticalAlign=middle;whiteSpace=wrap;rounded=0;" vertex="1" parent="1">
          <mxGeometry x="640" y="368" width="110" height="40" as="geometry" />
        </mxCell>
        <mxCell id="3NBSbkTWsIPGxTo4kcV9-1" value="&lt;b style=&quot;font-family: &amp;quot;Times New Roman&amp;quot;;&quot;&gt;&lt;font style=&quot;font-size: 18px;&quot;&gt;UserID&lt;/font&gt;&lt;/b&gt;" style="whiteSpace=wrap;html=1;align=center;fillColor=#FFCC99;" vertex="1" parent="1">
          <mxGeometry x="652" y="441" width="120" height="40" as="geometry" />
        </mxCell>
        <mxCell id="azitXJM1LrEN2PwkcPQe-1" style="edgeStyle=orthogonalEdgeStyle;rounded=0;orthogonalLoop=1;jettySize=auto;html=1;entryX=0.75;entryY=0;entryDx=0;entryDy=0;exitX=0.5;exitY=0;exitDx=0;exitDy=0;" edge="1" parent="1" source="3NBSbkTWsIPGxTo4kcV9-2" target="HGeV0f5Xq7yXwdrrObhG-1">
          <mxGeometry relative="1" as="geometry">
            <mxPoint x="772.0000000000005" y="441" as="sourcePoint" />
            <mxPoint x="140" y="420" as="targetPoint" />
            <Array as="points">
              <mxPoint x="830" y="441" />
              <mxPoint x="830" y="360" />
              <mxPoint x="280" y="360" />
              <mxPoint x="280" y="400" />
              <mxPoint x="260" y="400" />
            </Array>
          </mxGeometry>
        </mxCell>
        <mxCell id="3NBSbkTWsIPGxTo4kcV9-2" value="&lt;b style=&quot;font-family: &amp;quot;Times New Roman&amp;quot;;&quot;&gt;&lt;font style=&quot;font-size: 18px;&quot;&gt;StaffID&lt;/font&gt;&lt;/b&gt;" style="whiteSpace=wrap;html=1;align=center;fillColor=#CAFFEB;" vertex="1" parent="1">
          <mxGeometry x="772" y="441" width="120" height="40" as="geometry" />
        </mxCell>
        <mxCell id="3NBSbkTWsIPGxTo4kcV9-3" value="&lt;b style=&quot;font-family: &amp;quot;Times New Roman&amp;quot;;&quot;&gt;&lt;font style=&quot;font-size: 18px;&quot;&gt;Password&lt;/font&gt;&lt;/b&gt;" style="whiteSpace=wrap;html=1;align=center;" vertex="1" parent="1">
          <mxGeometry x="1012" y="441" width="120" height="40" as="geometry" />
        </mxCell>
        <mxCell id="3NBSbkTWsIPGxTo4kcV9-4" value="&lt;b style=&quot;font-family: &amp;quot;Times New Roman&amp;quot;;&quot;&gt;&lt;font style=&quot;font-size: 18px;&quot;&gt;UserName&lt;/font&gt;&lt;/b&gt;" style="whiteSpace=wrap;html=1;align=center;" vertex="1" parent="1">
          <mxGeometry x="892" y="441" width="120" height="40" as="geometry" />
        </mxCell>
        <mxCell id="E2aZCFYRYbxwO31iPNOR-1" value="&lt;span style=&quot;color: rgb(0, 0, 204); font-family: &amp;quot;Times New Roman&amp;quot;;&quot;&gt;&lt;font style=&quot;font-size: 36px;&quot;&gt;&lt;b&gt;Doctors&lt;/b&gt;&lt;/font&gt;&lt;/span&gt;" style="text;html=1;align=center;verticalAlign=middle;whiteSpace=wrap;rounded=0;" vertex="1" parent="1">
          <mxGeometry x="1244" y="368" width="110" height="40" as="geometry" />
        </mxCell>
        <mxCell id="gv9gdqYMLXOYbRF5TNbN-1" value="&lt;b style=&quot;font-family: &amp;quot;Times New Roman&amp;quot;; text-decoration-line: underline;&quot;&gt;&lt;font style=&quot;font-size: 18px;&quot;&gt;DoctorID&lt;/font&gt;&lt;/b&gt;" style="whiteSpace=wrap;html=1;align=center;fillColor=#E4F6FF;" vertex="1" parent="1">
          <mxGeometry x="1240" y="439" width="120" height="40" as="geometry" />
        </mxCell>
        <mxCell id="gv9gdqYMLXOYbRF5TNbN-2" value="&lt;b style=&quot;font-family: &amp;quot;Times New Roman&amp;quot;;&quot;&gt;&lt;font style=&quot;font-size: 18px;&quot;&gt;UserID +&amp;nbsp;&lt;/font&gt;&lt;/b&gt;&lt;b style=&quot;font-family: &amp;quot;Times New Roman&amp;quot;;&quot;&gt;&lt;font style=&quot;font-size: 18px;&quot;&gt;StaffID&lt;/font&gt;&lt;/b&gt;" style="whiteSpace=wrap;html=1;align=center;fillColor=#CAFFEB;" vertex="1" parent="1">
          <mxGeometry x="1360" y="439" width="210" height="40" as="geometry" />
        </mxCell>
        <mxCell id="ZPKGu5IF8Q4aGaiWggjH-2" style="edgeStyle=orthogonalEdgeStyle;rounded=0;orthogonalLoop=1;jettySize=auto;html=1;entryX=0.5;entryY=1;entryDx=0;entryDy=0;" edge="1" parent="1" source="gv9gdqYMLXOYbRF5TNbN-4" target="dE5FA3QOZ5FPuDW7H-kX-1">
          <mxGeometry relative="1" as="geometry">
            <Array as="points">
              <mxPoint x="1635" y="360" />
              <mxPoint x="1822" y="360" />
            </Array>
          </mxGeometry>
        </mxCell>
        <mxCell id="gv9gdqYMLXOYbRF5TNbN-4" value="&lt;b style=&quot;font-family: &amp;quot;Times New Roman&amp;quot;;&quot;&gt;&lt;font style=&quot;font-size: 18px;&quot;&gt;DepartmentID&lt;/font&gt;&lt;/b&gt;" style="whiteSpace=wrap;html=1;align=center;fillColor=#CAFFEB;" vertex="1" parent="1">
          <mxGeometry x="1570" y="439" width="130" height="40" as="geometry" />
        </mxCell>
        <mxCell id="dkv85eT4QjZo3m9QdQGk-1" value="&lt;b style=&quot;font-family: &amp;quot;Times New Roman&amp;quot;;&quot;&gt;&lt;font style=&quot;font-size: 18px;&quot;&gt;Has&lt;/font&gt;&lt;/b&gt;" style="text;html=1;align=center;verticalAlign=middle;whiteSpace=wrap;rounded=0;" vertex="1" parent="1">
          <mxGeometry x="620" y="330" width="60" height="30" as="geometry" />
        </mxCell>
        <mxCell id="5H1w1ik8KZuJ5cWKICKo-1" value="&lt;b style=&quot;font-family: &amp;quot;Times New Roman&amp;quot;;&quot;&gt;&lt;font style=&quot;font-size: 18px;&quot;&gt;Can be&lt;/font&gt;&lt;/b&gt;" style="text;html=1;align=center;verticalAlign=middle;whiteSpace=wrap;rounded=0;" vertex="1" parent="1">
          <mxGeometry x="1215" y="290" width="60" height="30" as="geometry" />
        </mxCell>
        <mxCell id="2ezYImJOVEc0Ppuiw7_D-1" value="&lt;b style=&quot;font-family: &amp;quot;Times New Roman&amp;quot;;&quot;&gt;&lt;font style=&quot;font-size: 18px;&quot;&gt;Specialization&lt;/font&gt;&lt;/b&gt;" style="whiteSpace=wrap;html=1;align=center;" vertex="1" parent="1">
          <mxGeometry x="2060" y="439" width="120" height="40" as="geometry" />
        </mxCell>
        <mxCell id="2ezYImJOVEc0Ppuiw7_D-2" value="&lt;b style=&quot;font-family: &amp;quot;Times New Roman&amp;quot;;&quot;&gt;&lt;font style=&quot;font-size: 18px;&quot;&gt;Gender&lt;/font&gt;&lt;/b&gt;" style="whiteSpace=wrap;html=1;align=center;" vertex="1" parent="1">
          <mxGeometry x="1940" y="439" width="120" height="40" as="geometry" />
        </mxCell>
        <mxCell id="2ezYImJOVEc0Ppuiw7_D-3" value="&lt;b style=&quot;font-family: &amp;quot;Times New Roman&amp;quot;;&quot;&gt;&lt;font style=&quot;font-size: 18px;&quot;&gt;DoctorName&lt;/font&gt;&lt;/b&gt;" style="whiteSpace=wrap;html=1;align=center;" vertex="1" parent="1">
          <mxGeometry x="1820" y="439" width="120" height="40" as="geometry" />
        </mxCell>
        <mxCell id="2ezYImJOVEc0Ppuiw7_D-4" value="&lt;b style=&quot;font-family: &amp;quot;Times New Roman&amp;quot;;&quot;&gt;&lt;font style=&quot;font-size: 18px;&quot;&gt;DOB&lt;/font&gt;&lt;/b&gt;" style="whiteSpace=wrap;html=1;align=center;" vertex="1" parent="1">
          <mxGeometry x="1700" y="439" width="120" height="40" as="geometry" />
        </mxCell>
        <mxCell id="2ezYImJOVEc0Ppuiw7_D-6" style="edgeStyle=orthogonalEdgeStyle;rounded=0;orthogonalLoop=1;jettySize=auto;html=1;entryX=0.832;entryY=-0.013;entryDx=0;entryDy=0;entryPerimeter=0;" edge="1" parent="1" source="gv9gdqYMLXOYbRF5TNbN-2" target="joaRldD6EEz2nMiDA5Nj-1">
          <mxGeometry relative="1" as="geometry">
            <Array as="points">
              <mxPoint x="1465" y="320" />
              <mxPoint x="850" y="320" />
            </Array>
          </mxGeometry>
        </mxCell>
        <mxCell id="iAYQaL2yZAmdTzlTDzsV-1" value="&lt;b style=&quot;font-family: &amp;quot;Times New Roman&amp;quot;;&quot;&gt;&lt;font style=&quot;font-size: 18px;&quot;&gt;Email&lt;/font&gt;&lt;/b&gt;" style="whiteSpace=wrap;html=1;align=center;" vertex="1" parent="1">
          <mxGeometry x="2420" y="439" width="120" height="40" as="geometry" />
        </mxCell>
        <mxCell id="iAYQaL2yZAmdTzlTDzsV-2" value="&lt;b style=&quot;font-family: &amp;quot;Times New Roman&amp;quot;;&quot;&gt;&lt;font style=&quot;font-size: 18px;&quot;&gt;Address&lt;/font&gt;&lt;/b&gt;" style="whiteSpace=wrap;html=1;align=center;" vertex="1" parent="1">
          <mxGeometry x="2300" y="439" width="120" height="40" as="geometry" />
        </mxCell>
        <mxCell id="iAYQaL2yZAmdTzlTDzsV-3" value="&lt;b style=&quot;font-family: &amp;quot;Times New Roman&amp;quot;;&quot;&gt;&lt;font style=&quot;font-size: 18px;&quot;&gt;PhoneNo&lt;/font&gt;&lt;/b&gt;" style="whiteSpace=wrap;html=1;align=center;" vertex="1" parent="1">
          <mxGeometry x="2180" y="439" width="120" height="40" as="geometry" />
        </mxCell>
        <mxCell id="ZHrpv4_ozZhBGinmj6fT-1" value="&lt;span style=&quot;color: rgb(0, 0, 204); font-family: &amp;quot;Times New Roman&amp;quot;;&quot;&gt;&lt;font style=&quot;font-size: 36px;&quot;&gt;&lt;b&gt;Departments&lt;/b&gt;&lt;/font&gt;&lt;/span&gt;" style="text;html=1;align=center;verticalAlign=middle;whiteSpace=wrap;rounded=0;" vertex="1" parent="1">
          <mxGeometry x="1750" y="184.5" width="210" height="40" as="geometry" />
        </mxCell>
        <mxCell id="dE5FA3QOZ5FPuDW7H-kX-1" value="&lt;b style=&quot;font-family: &amp;quot;Times New Roman&amp;quot;; text-decoration-line: underline;&quot;&gt;&lt;font style=&quot;font-size: 18px;&quot;&gt;DepartmentID&lt;/font&gt;&lt;/b&gt;" style="whiteSpace=wrap;html=1;align=center;fillColor=#E4F6FF;" vertex="1" parent="1">
          <mxGeometry x="1752" y="255.5" width="140" height="40" as="geometry" />
        </mxCell>
        <mxCell id="Mfn-UEP2S9xHEzxvQNLC-1" value="&lt;b style=&quot;font-family: &amp;quot;Times New Roman&amp;quot;;&quot;&gt;&lt;font style=&quot;font-size: 18px;&quot;&gt;DepartmentName&lt;/font&gt;&lt;/b&gt;" style="whiteSpace=wrap;html=1;align=center;" vertex="1" parent="1">
          <mxGeometry x="1892" y="255.5" width="160" height="40" as="geometry" />
        </mxCell>
        <mxCell id="QCjUrABb9FvOY6WBWNGI-1" value="&lt;b style=&quot;font-family: &amp;quot;Times New Roman&amp;quot;;&quot;&gt;&lt;font style=&quot;font-size: 18px;&quot;&gt;Belongs to&lt;/font&gt;&lt;/b&gt;" style="text;html=1;align=center;verticalAlign=middle;whiteSpace=wrap;rounded=0;" vertex="1" parent="1">
          <mxGeometry x="1680" y="320" width="100" height="30" as="geometry" />
        </mxCell>
        <mxCell id="ZPKGu5IF8Q4aGaiWggjH-5" value="&lt;span style=&quot;color: rgb(0, 0, 204); font-family: &amp;quot;Times New Roman&amp;quot;;&quot;&gt;&lt;b style=&quot;&quot;&gt;&lt;font style=&quot;font-size: 36px;&quot;&gt;Patients&lt;/font&gt;&lt;/b&gt;&lt;/span&gt;" style="text;html=1;align=center;verticalAlign=middle;whiteSpace=wrap;rounded=0;" vertex="1" parent="1">
          <mxGeometry x="1609" y="570" width="110" height="40" as="geometry" />
        </mxCell>
        <mxCell id="qskHG25cw8g2qrY1L0wl-1" value="&lt;b style=&quot;font-family: &amp;quot;Times New Roman&amp;quot;; text-decoration-line: underline;&quot;&gt;&lt;font style=&quot;font-size: 18px;&quot;&gt;PatientID&lt;/font&gt;&lt;/b&gt;" style="whiteSpace=wrap;html=1;align=center;fillColor=#E4F6FF;" vertex="1" parent="1">
          <mxGeometry x="1600" y="640" width="120" height="40" as="geometry" />
        </mxCell>
        <mxCell id="ABhinbR1dVWOnGqnxK7O-1" value="&lt;b style=&quot;font-family: &amp;quot;Times New Roman&amp;quot;;&quot;&gt;&lt;font style=&quot;font-size: 18px;&quot;&gt;Email&lt;/font&gt;&lt;/b&gt;" style="whiteSpace=wrap;html=1;align=center;" vertex="1" parent="1">
          <mxGeometry x="2320" y="640" width="120" height="40" as="geometry" />
        </mxCell>
        <mxCell id="ABhinbR1dVWOnGqnxK7O-2" value="&lt;b style=&quot;font-family: &amp;quot;Times New Roman&amp;quot;;&quot;&gt;&lt;font style=&quot;font-size: 18px;&quot;&gt;Address&lt;/font&gt;&lt;/b&gt;" style="whiteSpace=wrap;html=1;align=center;" vertex="1" parent="1">
          <mxGeometry x="2200" y="640" width="120" height="40" as="geometry" />
        </mxCell>
        <mxCell id="ABhinbR1dVWOnGqnxK7O-3" value="&lt;b style=&quot;font-family: &amp;quot;Times New Roman&amp;quot;;&quot;&gt;&lt;font style=&quot;font-size: 18px;&quot;&gt;PhoneNo&lt;/font&gt;&lt;/b&gt;" style="whiteSpace=wrap;html=1;align=center;" vertex="1" parent="1">
          <mxGeometry x="2080" y="640" width="120" height="40" as="geometry" />
        </mxCell>
        <mxCell id="ABhinbR1dVWOnGqnxK7O-4" value="&lt;b style=&quot;font-family: &amp;quot;Times New Roman&amp;quot;;&quot;&gt;&lt;font style=&quot;font-size: 18px;&quot;&gt;Gender&lt;/font&gt;&lt;/b&gt;" style="whiteSpace=wrap;html=1;align=center;" vertex="1" parent="1">
          <mxGeometry x="1960" y="640" width="120" height="40" as="geometry" />
        </mxCell>
        <mxCell id="ABhinbR1dVWOnGqnxK7O-5" value="&lt;b style=&quot;font-family: &amp;quot;Times New Roman&amp;quot;;&quot;&gt;&lt;font style=&quot;font-size: 18px;&quot;&gt;DOB&lt;/font&gt;&lt;/b&gt;" style="whiteSpace=wrap;html=1;align=center;" vertex="1" parent="1">
          <mxGeometry x="1840" y="640" width="120" height="40" as="geometry" />
        </mxCell>
        <mxCell id="ABhinbR1dVWOnGqnxK7O-6" value="&lt;b style=&quot;font-family: &amp;quot;Times New Roman&amp;quot;;&quot;&gt;&lt;font style=&quot;font-size: 18px;&quot;&gt;PatientName&lt;/font&gt;&lt;/b&gt;" style="whiteSpace=wrap;html=1;align=center;" vertex="1" parent="1">
          <mxGeometry x="1720" y="640" width="120" height="40" as="geometry" />
        </mxCell>
        <mxCell id="O2uaM8XLB9Qtj3h2gLUc-1" value="&lt;span style=&quot;color: rgb(0, 0, 204); font-family: &amp;quot;Times New Roman&amp;quot;;&quot;&gt;&lt;b style=&quot;&quot;&gt;&lt;font style=&quot;font-size: 36px;&quot;&gt;Appointments&lt;/font&gt;&lt;/b&gt;&lt;/span&gt;" style="text;html=1;align=center;verticalAlign=middle;whiteSpace=wrap;rounded=0;" vertex="1" parent="1">
          <mxGeometry x="1609" y="770" width="210" height="40" as="geometry" />
        </mxCell>
        <mxCell id="6cnHXSUOfd_snGJseBSX-1" value="&lt;b style=&quot;font-family: &amp;quot;Times New Roman&amp;quot;; text-decoration-line: underline;&quot;&gt;&lt;font style=&quot;font-size: 18px;&quot;&gt;AppointmentID&lt;/font&gt;&lt;/b&gt;" style="whiteSpace=wrap;html=1;align=center;fillColor=#E4F6FF;" vertex="1" parent="1">
          <mxGeometry x="1602" y="840" width="148" height="40" as="geometry" />
        </mxCell>
        <mxCell id="6cnHXSUOfd_snGJseBSX-2" value="&lt;b style=&quot;font-family: &amp;quot;Times New Roman&amp;quot;;&quot;&gt;&lt;font style=&quot;font-size: 18px;&quot;&gt;PatientID&lt;/font&gt;&lt;/b&gt;" style="whiteSpace=wrap;html=1;align=center;fillColor=#CAFFEB;" vertex="1" parent="1">
          <mxGeometry x="1751" y="840" width="120" height="40" as="geometry" />
        </mxCell>
        <mxCell id="4IQtaOEPhOGFAAvD_qLj-3" style="edgeStyle=orthogonalEdgeStyle;rounded=0;orthogonalLoop=1;jettySize=auto;html=1;entryX=0.5;entryY=1;entryDx=0;entryDy=0;" edge="1" parent="1" source="6cnHXSUOfd_snGJseBSX-3" target="gv9gdqYMLXOYbRF5TNbN-1">
          <mxGeometry relative="1" as="geometry">
            <Array as="points">
              <mxPoint x="1931" y="800" />
              <mxPoint x="2480" y="800" />
              <mxPoint x="2480" y="560" />
              <mxPoint x="1300" y="560" />
            </Array>
          </mxGeometry>
        </mxCell>
        <mxCell id="6cnHXSUOfd_snGJseBSX-3" value="&lt;b style=&quot;font-family: &amp;quot;Times New Roman&amp;quot;;&quot;&gt;&lt;font style=&quot;font-size: 18px;&quot;&gt;DoctorID&lt;/font&gt;&lt;/b&gt;" style="whiteSpace=wrap;html=1;align=center;fillColor=#CAFFEB;" vertex="1" parent="1">
          <mxGeometry x="1871" y="840" width="120" height="40" as="geometry" />
        </mxCell>
        <mxCell id="N4rmqKUHcaSnSkdJLK3M-1" value="&lt;b style=&quot;font-family: &amp;quot;Times New Roman&amp;quot;;&quot;&gt;&lt;font style=&quot;font-size: 18px;&quot;&gt;AppointmentTime&lt;/font&gt;&lt;/b&gt;" style="whiteSpace=wrap;html=1;align=center;" vertex="1" parent="1">
          <mxGeometry x="1991" y="840" width="169" height="40" as="geometry" />
        </mxCell>
        <mxCell id="qpxWtDIXI6m_DOh2yGin-1" value="&lt;b style=&quot;font-family: &amp;quot;Times New Roman&amp;quot;;&quot;&gt;&lt;font style=&quot;font-size: 18px;&quot;&gt;AppointmentDate&lt;/font&gt;&lt;/b&gt;" style="whiteSpace=wrap;html=1;align=center;" vertex="1" parent="1">
          <mxGeometry x="2160" y="840" width="169" height="40" as="geometry" />
        </mxCell>
        <mxCell id="G8zOmeUiEW_W490wJOWd-1" value="&lt;b style=&quot;font-family: &amp;quot;Times New Roman&amp;quot;;&quot;&gt;&lt;font style=&quot;font-size: 18px;&quot;&gt;Has&lt;/font&gt;&lt;/b&gt;" style="text;html=1;align=center;verticalAlign=middle;whiteSpace=wrap;rounded=0;" vertex="1" parent="1">
          <mxGeometry x="1720" y="730" width="60" height="30" as="geometry" />
        </mxCell>
        <mxCell id="G8zOmeUiEW_W490wJOWd-2" value="&lt;b style=&quot;font-family: &amp;quot;Times New Roman&amp;quot;;&quot;&gt;&lt;font style=&quot;font-size: 18px;&quot;&gt;Set&lt;/font&gt;&lt;/b&gt;" style="text;html=1;align=center;verticalAlign=middle;whiteSpace=wrap;rounded=0;" vertex="1" parent="1">
          <mxGeometry x="2030" y="760" width="60" height="30" as="geometry" />
        </mxCell>
        <mxCell id="EOWLOUys9HM60o3SM3yZ-1" style="edgeStyle=orthogonalEdgeStyle;rounded=0;orthogonalLoop=1;jettySize=auto;html=1;entryX=0.617;entryY=1;entryDx=0;entryDy=0;entryPerimeter=0;" edge="1" parent="1" source="6cnHXSUOfd_snGJseBSX-2" target="qskHG25cw8g2qrY1L0wl-1">
          <mxGeometry relative="1" as="geometry">
            <Array as="points">
              <mxPoint x="1840" y="760" />
              <mxPoint x="1674" y="760" />
            </Array>
          </mxGeometry>
        </mxCell>
        <mxCell id="xIB4DixCQqoChdVnI7sp-2" value="&lt;span style=&quot;color: rgb(0, 0, 204); font-family: &amp;quot;Times New Roman&amp;quot;;&quot;&gt;&lt;font style=&quot;font-size: 36px;&quot;&gt;&lt;b&gt;MedicalRecords&lt;/b&gt;&lt;/font&gt;&lt;/span&gt;" style="text;html=1;align=center;verticalAlign=middle;whiteSpace=wrap;rounded=0;" vertex="1" parent="1">
          <mxGeometry x="1440" y="930" width="210" height="40" as="geometry" />
        </mxCell>
        <mxCell id="nJH0xJTQIIbwn76Lwdvl-1" value="&lt;b style=&quot;font-family: &amp;quot;Times New Roman&amp;quot;; text-decoration-line: underline;&quot;&gt;&lt;font style=&quot;font-size: 18px;&quot;&gt;MedicalRecordsID&lt;/font&gt;&lt;/b&gt;" style="whiteSpace=wrap;html=1;align=center;fillColor=#E4F6FF;" vertex="1" parent="1">
          <mxGeometry x="1420" y="1000" width="200" height="40" as="geometry" />
        </mxCell>
        <mxCell id="ZD0V8bErx8LKlijnJZQg-1" value="&lt;b style=&quot;font-family: &amp;quot;Times New Roman&amp;quot;;&quot;&gt;&lt;font style=&quot;font-size: 18px;&quot;&gt;PatientID&lt;/font&gt;&lt;/b&gt;" style="whiteSpace=wrap;html=1;align=center;fillColor=#CAFFEB;" vertex="1" parent="1">
          <mxGeometry x="1620" y="1000" width="120" height="40" as="geometry" />
        </mxCell>
        <mxCell id="ZD0V8bErx8LKlijnJZQg-2" value="&lt;b style=&quot;font-family: &amp;quot;Times New Roman&amp;quot;;&quot;&gt;&lt;font style=&quot;font-size: 18px;&quot;&gt;DoctorID&lt;/font&gt;&lt;/b&gt;" style="whiteSpace=wrap;html=1;align=center;fillColor=#CAFFEB;" vertex="1" parent="1">
          <mxGeometry x="1740" y="1000" width="120" height="40" as="geometry" />
        </mxCell>
        <mxCell id="31139JaMU6oThb-CuEBK-1" value="&lt;b style=&quot;font-family: &amp;quot;Times New Roman&amp;quot;;&quot;&gt;&lt;font style=&quot;font-size: 18px;&quot;&gt;Diagnosis&lt;/font&gt;&lt;/b&gt;" style="whiteSpace=wrap;html=1;align=center;" vertex="1" parent="1">
          <mxGeometry x="1860" y="1000" width="120" height="40" as="geometry" />
        </mxCell>
        <mxCell id="6avp38Hpeqs636xFPtOK-1" value="&lt;b style=&quot;font-family: &amp;quot;Times New Roman&amp;quot;;&quot;&gt;&lt;font style=&quot;font-size: 18px;&quot;&gt;Diagnosis&lt;/font&gt;&lt;/b&gt;" style="whiteSpace=wrap;html=1;align=center;" vertex="1" parent="1">
          <mxGeometry x="2240" y="1000" width="120" height="40" as="geometry" />
        </mxCell>
        <mxCell id="6avp38Hpeqs636xFPtOK-2" value="&lt;b style=&quot;font-family: &amp;quot;Times New Roman&amp;quot;;&quot;&gt;&lt;font style=&quot;font-size: 18px;&quot;&gt;Diagnosis&lt;/font&gt;&lt;/b&gt;" style="whiteSpace=wrap;html=1;align=center;" vertex="1" parent="1">
          <mxGeometry x="2120" y="1000" width="120" height="40" as="geometry" />
        </mxCell>
        <mxCell id="6avp38Hpeqs636xFPtOK-3" value="&lt;b style=&quot;font-family: &amp;quot;Times New Roman&amp;quot;;&quot;&gt;&lt;font style=&quot;font-size: 18px;&quot;&gt;TreatmentPlans&lt;/font&gt;&lt;/b&gt;" style="whiteSpace=wrap;html=1;align=center;" vertex="1" parent="1">
          <mxGeometry x="1980" y="1000" width="140" height="40" as="geometry" />
        </mxCell>
        <mxCell id="nJKmhaT70pfH5nr1KJlZ-1" style="edgeStyle=orthogonalEdgeStyle;rounded=0;orthogonalLoop=1;jettySize=auto;html=1;entryX=0.4;entryY=1;entryDx=0;entryDy=0;entryPerimeter=0;" edge="1" parent="1" source="ZD0V8bErx8LKlijnJZQg-1" target="qskHG25cw8g2qrY1L0wl-1">
          <mxGeometry relative="1" as="geometry">
            <Array as="points">
              <mxPoint x="1680" y="900" />
              <mxPoint x="1580" y="900" />
              <mxPoint x="1580" y="720" />
              <mxPoint x="1648" y="720" />
            </Array>
          </mxGeometry>
        </mxCell>
        <mxCell id="4IQtaOEPhOGFAAvD_qLj-1" value="&lt;b style=&quot;font-family: &amp;quot;Times New Roman&amp;quot;;&quot;&gt;&lt;font style=&quot;font-size: 18px;&quot;&gt;Has&lt;/font&gt;&lt;/b&gt;" style="text;html=1;align=center;verticalAlign=middle;whiteSpace=wrap;rounded=0;" vertex="1" parent="1">
          <mxGeometry x="1680" y="910" width="60" height="30" as="geometry" />
        </mxCell>
        <mxCell id="4IQtaOEPhOGFAAvD_qLj-2" style="edgeStyle=orthogonalEdgeStyle;rounded=0;orthogonalLoop=1;jettySize=auto;html=1;entryX=0.75;entryY=1;entryDx=0;entryDy=0;" edge="1" parent="1" source="ZD0V8bErx8LKlijnJZQg-2" target="gv9gdqYMLXOYbRF5TNbN-1">
          <mxGeometry relative="1" as="geometry">
            <mxPoint x="1330" y="490" as="targetPoint" />
            <Array as="points">
              <mxPoint x="1800" y="960" />
              <mxPoint x="2520" y="960" />
              <mxPoint x="2520" y="520" />
              <mxPoint x="1330" y="520" />
            </Array>
          </mxGeometry>
        </mxCell>
        <mxCell id="QoBEJvcErZMqpL59e8a8-1" value="&lt;b style=&quot;font-family: &amp;quot;Times New Roman&amp;quot;;&quot;&gt;&lt;font style=&quot;font-size: 18px;&quot;&gt;Set&lt;/font&gt;&lt;/b&gt;" style="text;html=1;align=center;verticalAlign=middle;whiteSpace=wrap;rounded=0;" vertex="1" parent="1">
          <mxGeometry x="2065" y="920" width="60" height="30" as="geometry" />
        </mxCell>
        <mxCell id="vRoQJJhEl2fzyKVtbj1X-1" value="&lt;span style=&quot;color: rgb(0, 0, 204);&quot;&gt;&lt;font style=&quot;font-size: 36px;&quot; face=&quot;Times New Roman&quot;&gt;&lt;b&gt;Billing&lt;/b&gt;&lt;/font&gt;&lt;/span&gt;" style="text;html=1;align=center;verticalAlign=middle;whiteSpace=wrap;rounded=0;" vertex="1" parent="1">
          <mxGeometry x="1418" y="1130" width="142" height="40" as="geometry" />
        </mxCell>
        <mxCell id="z9x83-o43pjAj9UFVc1Y-1" value="&lt;b style=&quot;font-family: &amp;quot;Times New Roman&amp;quot;; text-decoration-line: underline;&quot;&gt;&lt;font style=&quot;font-size: 18px;&quot;&gt;BillingID&lt;/font&gt;&lt;/b&gt;" style="whiteSpace=wrap;html=1;align=center;fillColor=#E4F6FF;" vertex="1" parent="1">
          <mxGeometry x="1440" y="1200" width="120" height="40" as="geometry" />
        </mxCell>
        <mxCell id="EaO2ia897W9xgMFvo_Nx-3" style="edgeStyle=orthogonalEdgeStyle;rounded=0;orthogonalLoop=1;jettySize=auto;html=1;entryX=0.25;entryY=1;entryDx=0;entryDy=0;" edge="1" parent="1" source="EaO2ia897W9xgMFvo_Nx-1" target="qskHG25cw8g2qrY1L0wl-1">
          <mxGeometry relative="1" as="geometry">
            <Array as="points">
              <mxPoint x="1620" y="1120" />
              <mxPoint x="1370" y="1120" />
              <mxPoint x="1370" y="700" />
              <mxPoint x="1630" y="700" />
            </Array>
          </mxGeometry>
        </mxCell>
        <mxCell id="EaO2ia897W9xgMFvo_Nx-1" value="&lt;b style=&quot;font-family: &amp;quot;Times New Roman&amp;quot;;&quot;&gt;&lt;font style=&quot;font-size: 18px;&quot;&gt;PatientID&lt;/font&gt;&lt;/b&gt;" style="whiteSpace=wrap;html=1;align=center;fillColor=#CAFFEB;" vertex="1" parent="1">
          <mxGeometry x="1560" y="1200" width="120" height="40" as="geometry" />
        </mxCell>
        <mxCell id="6bM4zV4xt_3wxF5JjTJE-2" style="edgeStyle=orthogonalEdgeStyle;rounded=0;orthogonalLoop=1;jettySize=auto;html=1;entryX=0.75;entryY=1;entryDx=0;entryDy=0;" edge="1" parent="1" source="EaO2ia897W9xgMFvo_Nx-2" target="nJH0xJTQIIbwn76Lwdvl-1">
          <mxGeometry relative="1" as="geometry">
            <Array as="points">
              <mxPoint x="1780" y="1100" />
              <mxPoint x="1570" y="1100" />
            </Array>
          </mxGeometry>
        </mxCell>
        <mxCell id="EaO2ia897W9xgMFvo_Nx-2" value="&lt;b style=&quot;font-family: &amp;quot;Times New Roman&amp;quot;;&quot;&gt;&lt;font style=&quot;font-size: 18px;&quot;&gt;MedicalRecordsID&lt;/font&gt;&lt;/b&gt;" style="whiteSpace=wrap;html=1;align=center;fillColor=#CAFFEB;" vertex="1" parent="1">
          <mxGeometry x="1680" y="1200" width="200" height="40" as="geometry" />
        </mxCell>
        <mxCell id="6bM4zV4xt_3wxF5JjTJE-1" value="&lt;b style=&quot;font-family: &amp;quot;Times New Roman&amp;quot;;&quot;&gt;&lt;font style=&quot;font-size: 18px;&quot;&gt;Has&lt;/font&gt;&lt;/b&gt;" style="text;html=1;align=center;verticalAlign=middle;whiteSpace=wrap;rounded=0;" vertex="1" parent="1">
          <mxGeometry x="1430" y="1090" width="60" height="30" as="geometry" />
        </mxCell>
        <mxCell id="6bM4zV4xt_3wxF5JjTJE-3" value="&lt;b style=&quot;font-family: &amp;quot;Times New Roman&amp;quot;;&quot;&gt;&lt;font style=&quot;font-size: 18px;&quot;&gt;Generate&lt;/font&gt;&lt;/b&gt;" style="text;html=1;align=center;verticalAlign=middle;whiteSpace=wrap;rounded=0;" vertex="1" parent="1">
          <mxGeometry x="1620" y="1070" width="60" height="30" as="geometry" />
        </mxCell>
        <mxCell id="r-1fjAskrUX-rTMQj4Uq-1" value="&lt;b style=&quot;font-family: &amp;quot;Times New Roman&amp;quot;;&quot;&gt;&lt;font style=&quot;font-size: 18px;&quot;&gt;Date&lt;/font&gt;&lt;/b&gt;" style="whiteSpace=wrap;html=1;align=center;" vertex="1" parent="1">
          <mxGeometry x="1880" y="1200" width="120" height="40" as="geometry" />
        </mxCell>
        <mxCell id="HzcLyYSP4pG1wdhEvJMI-1" value="&lt;b style=&quot;font-family: &amp;quot;Times New Roman&amp;quot;;&quot;&gt;&lt;font style=&quot;font-size: 18px;&quot;&gt;TotalCost&lt;/font&gt;&lt;/b&gt;" style="whiteSpace=wrap;html=1;align=center;" vertex="1" parent="1">
          <mxGeometry x="2000" y="1200" width="120" height="40" as="geometry" />
        </mxCell>
        <mxCell id="Zq2RjuLKyGNtzaMGQ2Fo-1" value="&lt;font style=&quot;font-size: 36px; color: rgb(0, 0, 204);&quot;&gt;&lt;b&gt;&lt;span&gt;&lt;font style=&quot;&quot; face=&quot;Times New Roman&quot;&gt;Billing&lt;/font&gt;&lt;/span&gt;&lt;span style=&quot;font-family: &amp;quot;Times New Roman&amp;quot;;&quot;&gt;Services&lt;/span&gt;&lt;/b&gt;&lt;/font&gt;" style="text;html=1;align=center;verticalAlign=middle;whiteSpace=wrap;rounded=0;" vertex="1" parent="1">
          <mxGeometry x="1483" y="1327" width="142" height="40" as="geometry" />
        </mxCell>
        <mxCell id="kgoikCtEYYDg7EbdWvd1-1" value="&lt;span style=&quot;font-family: &amp;quot;Times New Roman&amp;quot;; text-decoration-line: underline;&quot;&gt;&lt;font style=&quot;font-size: 18px;&quot;&gt;&lt;b&gt;ServicesID&lt;/b&gt;&lt;/font&gt;&lt;/span&gt;" style="whiteSpace=wrap;html=1;align=center;fillColor=#E4F6FF;" vertex="1" parent="1">
          <mxGeometry x="1440" y="1400" width="120" height="40" as="geometry" />
        </mxCell>
        <mxCell id="kgoikCtEYYDg7EbdWvd1-6" style="edgeStyle=orthogonalEdgeStyle;rounded=0;orthogonalLoop=1;jettySize=auto;html=1;entryX=0;entryY=0.5;entryDx=0;entryDy=0;" edge="1" parent="1" source="kgoikCtEYYDg7EbdWvd1-2" target="z9x83-o43pjAj9UFVc1Y-1">
          <mxGeometry relative="1" as="geometry">
            <Array as="points">
              <mxPoint x="1620" y="1480" />
              <mxPoint x="1400" y="1480" />
              <mxPoint x="1400" y="1220" />
            </Array>
          </mxGeometry>
        </mxCell>
        <mxCell id="kgoikCtEYYDg7EbdWvd1-2" value="&lt;b style=&quot;font-family: &amp;quot;Times New Roman&amp;quot;; text-decoration-line: underline;&quot;&gt;&lt;font style=&quot;font-size: 18px;&quot;&gt;BillingID&lt;/font&gt;&lt;/b&gt;" style="whiteSpace=wrap;html=1;align=center;fillColor=#CAFFEB;" vertex="1" parent="1">
          <mxGeometry x="1560" y="1400" width="120" height="40" as="geometry" />
        </mxCell>
        <mxCell id="kgoikCtEYYDg7EbdWvd1-3" value="&lt;span style=&quot;font-family: &amp;quot;Times New Roman&amp;quot;;&quot;&gt;&lt;font style=&quot;font-size: 18px;&quot;&gt;&lt;b&gt;ServicesName&lt;/b&gt;&lt;/font&gt;&lt;/span&gt;" style="whiteSpace=wrap;html=1;align=center;" vertex="1" parent="1">
          <mxGeometry x="1680" y="1400" width="120" height="40" as="geometry" />
        </mxCell>
        <mxCell id="kgoikCtEYYDg7EbdWvd1-4" value="&lt;span style=&quot;font-family: &amp;quot;Times New Roman&amp;quot;;&quot;&gt;&lt;font style=&quot;font-size: 18px;&quot;&gt;&lt;b&gt;ServicesCost&lt;/b&gt;&lt;/font&gt;&lt;/span&gt;" style="whiteSpace=wrap;html=1;align=center;" vertex="1" parent="1">
          <mxGeometry x="1800" y="1400" width="120" height="40" as="geometry" />
        </mxCell>
        <mxCell id="kgoikCtEYYDg7EbdWvd1-7" value="&lt;b style=&quot;font-family: &amp;quot;Times New Roman&amp;quot;;&quot;&gt;&lt;font style=&quot;font-size: 18px;&quot;&gt;Has&lt;/font&gt;&lt;/b&gt;" style="text;html=1;align=center;verticalAlign=middle;whiteSpace=wrap;rounded=0;" vertex="1" parent="1">
          <mxGeometry x="1400" y="1260" width="60" height="30" as="geometry" />
        </mxCell>
        <mxCell id="PebdiZpbfRvPMZFW9j5l-1" value="&lt;span style=&quot;color: rgb(0, 0, 204); font-family: &amp;quot;Times New Roman&amp;quot;;&quot;&gt;&lt;font style=&quot;font-size: 36px;&quot;&gt;&lt;b&gt;Admissions&lt;/b&gt;&lt;/font&gt;&lt;/span&gt;" style="text;html=1;align=center;verticalAlign=middle;whiteSpace=wrap;rounded=0;" vertex="1" parent="1">
          <mxGeometry x="630" y="650" width="110" height="40" as="geometry" />
        </mxCell>
      </root>
    </mxGraphModel>
  </diagram>
</mxfile>
